<?xml version="1.0" encoding="utf-8"?>
<svg version="1.1" xmlns:xlink="http://www.w3.org/1999/xlink" width="24px" height="25px" xmlns="http://www.w3.org/2000/svg">
  <g>
    <path d="M 14.2111801242236 22.3446893787575  C 14.3768115942029 22.5116900467602  14.4596273291925 22.7037408149633  14.4596273291925 22.9208416833667  C 14.4596273291925 23.1379425517702  14.3768115942029 23.3299933199733  14.2111801242236 23.496993987976  L 12.9689440993789 24.749498997996  C 12.8033126293996 24.9164996659987  12.6128364389234 25  12.3975155279503 25  C 12.1821946169772 25  11.991718426501 24.9164996659987  11.8260869565217 24.749498997996  L 0.248447204968944 13.0761523046092  C 0.0828157349896481 12.9091516366065  0 12.7171008684035  0 12.5  C 0 12.2828991315965  0.0828157349896481 12.0908483633935  0.248447204968944 11.9238476953908  L 11.8260869565217 0.250501002004008  C 11.991718426501 0.0835003340013352  12.1821946169772 0  12.3975155279503 0  C 12.6128364389234 0  12.8033126293996 0.0835003340013352  12.9689440993789 0.250501002004008  L 14.2111801242236 1.50300601202405  C 14.3768115942029 1.67000668002672  14.4596273291925 1.86205744822979  14.4596273291925 2.07915831663327  C 14.4596273291925 2.29625918503674  14.3768115942029 2.48830995323981  14.2111801242236 2.65531062124249  L 4.4472049689441 12.5  L 14.2111801242236 22.3446893787575  Z M 23.7515527950311 22.3446893787575  C 23.9171842650104 22.5116900467602  24 22.7037408149633  24 22.9208416833667  C 24 23.1379425517702  23.9171842650104 23.3299933199733  23.7515527950311 23.496993987976  L 22.5093167701863 24.749498997996  C 22.343685300207 24.9164996659987  22.1532091097309 25  21.9378881987578 25  C 21.7225672877847 25  21.5320910973085 24.9164996659987  21.3664596273292 24.749498997996  L 9.7888198757764 13.0761523046092  C 9.6231884057971 12.9091516366065  9.54037267080746 12.7171008684035  9.54037267080745 12.5  C 9.54037267080746 12.2828991315965  9.6231884057971 12.0908483633935  9.7888198757764 11.9238476953908  L 21.3664596273292 0.250501002004008  C 21.5320910973085 0.0835003340013352  21.7225672877847 0  21.9378881987578 0  C 22.1532091097309 0  22.343685300207 0.0835003340013352  22.5093167701863 0.250501002004008  L 23.7515527950311 1.50300601202405  C 23.9171842650104 1.67000668002672  24 1.86205744822979  24 2.07915831663327  C 24 2.29625918503674  23.9171842650104 2.48830995323981  23.7515527950311 2.65531062124249  L 13.9875776397516 12.5  L 23.7515527950311 22.3446893787575  Z " fill-rule="nonzero" fill="#95f204" stroke="none" />
  </g>
</svg>