<?xml version="1.0" encoding="utf-8"?>
<svg version="1.1" xmlns:xlink="http://www.w3.org/1999/xlink" width="12px" height="12px" xmlns="http://www.w3.org/2000/svg">
  <g transform="matrix(1 0 0 1 -40 0 )">
    <path d="M 46 0  C 49.36 0  52 2.64  52 6  C 52 9.36  49.36 12  46 12  C 42.64 12  40 9.36  40 6  C 40 2.64  42.64 0  46 0  Z " fill-rule="nonzero" fill="#ffffff" stroke="none" />
    <path d="M 46 0.5  C 49.08 0.5  51.5 2.92  51.5 6  C 51.5 9.08  49.08 11.5  46 11.5  C 42.92 11.5  40.5 9.08  40.5 6  C 40.5 2.92  42.92 0.5  46 0.5  Z " stroke-width="1" stroke="#797979" fill="none" />
  </g>
</svg>