<?xml version="1.0" encoding="utf-8"?>
<svg version="1.1" xmlns:xlink="http://www.w3.org/1999/xlink" width="780px" height="16px" xmlns="http://www.w3.org/2000/svg">
  <defs>
    <mask fill="white" id="clip10">
      <path d="M 0 16  L 17.625 0  L 779.125 3  L 774.875 4.75  L 170.25 3  L 155.75 16  L 15 16  L 0 16  Z " fill-rule="evenodd" />
    </mask>
  </defs>
  <g transform="matrix(1 0 0 1 -141 -1436 )">
    <path d="M 0 16  L 17.625 0  L 779.125 3  L 774.875 4.75  L 170.25 3  L 155.75 16  L 15 16  L 0 16  Z " fill-rule="nonzero" fill="#95f204" stroke="none" transform="matrix(1 0 0 1 141 1436 )" />
    <path d="M 0 16  L 17.625 0  L 779.125 3  L 774.875 4.75  L 170.25 3  L 155.75 16  L 15 16  L 0 16  Z " stroke-width="2" stroke="#95f204" fill="none" transform="matrix(1 0 0 1 141 1436 )" mask="url(#clip10)" />
  </g>
</svg>