<?xml version="1.0" encoding="utf-8"?>
<svg version="1.1" xmlns:xlink="http://www.w3.org/1999/xlink" width="765px" height="16px" xmlns="http://www.w3.org/2000/svg">
  <defs>
    <mask fill="white" id="clip11">
      <path d="M 0 16  L 17.2860576923077 0  L 764.141826923077 3  L 759.973557692308 4.75  L 166.975961538462 3  L 152.754807692308 16  L 14.7115384615385 16  L 0 16  Z " fill-rule="evenodd" />
    </mask>
  </defs>
  <g transform="matrix(1 0 0 1 -138 -7541 )">
    <path d="M 0 16  L 17.2860576923077 0  L 764.141826923077 3  L 759.973557692308 4.75  L 166.975961538462 3  L 152.754807692308 16  L 14.7115384615385 16  L 0 16  Z " fill-rule="nonzero" fill="#95f204" stroke="none" transform="matrix(1 0 0 1 138 7541 )" />
    <path d="M 0 16  L 17.2860576923077 0  L 764.141826923077 3  L 759.973557692308 4.75  L 166.975961538462 3  L 152.754807692308 16  L 14.7115384615385 16  L 0 16  Z " stroke-width="2" stroke="#95f204" fill="none" transform="matrix(1 0 0 1 138 7541 )" mask="url(#clip11)" />
  </g>
</svg>