<?xml version="1.0" encoding="us-ascii" standalone="no"?><svg xmlns="http://www.w3.org/2000/svg" xmlns:xlink="http://www.w3.org/1999/xlink" contentStyleType="text/css" height="1696px" preserveAspectRatio="none" style="width:3090px;height:1696px;background:#1B1B1B;" version="1.1" viewBox="0 0 3090 1696" width="3090px" zoomAndPan="magnify"><defs/><g><rect fill="#1B1B1B" height="1696" style="stroke:none;stroke-width:1.0;" width="3090" x="0" y="0"/><!--class SymbolTable--><g id="elem_SymbolTable"><rect codeLine="1" fill="#313139" height="64.2969" id="SymbolTable" rx="2.5" ry="2.5" style="stroke:#E7E7E7;stroke-width:0.5;" width="126" x="244" y="39.5"/><ellipse cx="259" cy="55.5" fill="#2E5233" rx="11" ry="11" style="stroke:#E7E7E7;stroke-width:1.0;"/><path d="M261.3438,51.1719 C260.4063,50.7344 259.8125,50.5938 258.9375,50.5938 C256.3125,50.5938 254.3125,52.6719 254.3125,55.3906 L254.3125,56.5156 C254.3125,59.0938 256.4219,60.9844 259.3125,60.9844 C260.5313,60.9844 261.6875,60.6875 262.4375,60.1406 C263.0156,59.7344 263.3438,59.2813 263.3438,58.8906 C263.3438,58.4375 262.9531,58.0469 262.4844,58.0469 C262.2656,58.0469 262.0625,58.125 261.875,58.3125 C261.4219,58.7969 261.4219,58.7969 261.2344,58.8906 C260.8125,59.1563 260.125,59.2813 259.3594,59.2813 C257.3125,59.2813 256.0156,58.1875 256.0156,56.4844 L256.0156,55.3906 C256.0156,53.6094 257.2656,52.2969 259,52.2969 C259.5781,52.2969 260.1875,52.4531 260.6563,52.7031 C261.1406,52.9844 261.3125,53.2031 261.4063,53.6094 C261.4688,54.0156 261.5,54.1406 261.6406,54.2656 C261.7813,54.4063 262.0156,54.5156 262.2344,54.5156 C262.5,54.5156 262.7656,54.375 262.9375,54.1563 C263.0469,54 263.0781,53.8125 263.0781,53.3906 L263.0781,51.9688 C263.0781,51.5313 263.0625,51.4063 262.9688,51.25 C262.8125,50.9844 262.5313,50.8438 262.2344,50.8438 C261.9375,50.8438 261.7344,50.9375 261.5156,51.25 L261.3438,51.1719 Z " fill="#FFFFFF"/><text fill="#FFFFFF" font-family="sans-serif" font-size="14" lengthAdjust="spacing" textLength="94" x="273" y="60.3467">SymbolTable</text><line style="stroke:#E7E7E7;stroke-width:0.5;" x1="245" x2="369" y1="71.5" y2="71.5"/><line style="stroke:#E7E7E7;stroke-width:0.5;" x1="245" x2="369" y1="79.5" y2="79.5"/><text fill="#FFFFFF" font-family="sans-serif" font-size="14" lengthAdjust="spacing" textLength="62" x="250" y="96.4951">__init__()</text></g><!--class Program--><g id="elem_Program"><rect codeLine="4" fill="#313139" height="129.4844" id="Program" rx="2.5" ry="2.5" style="stroke:#E7E7E7;stroke-width:0.5;" width="555" x="405.5" y="7"/><ellipse cx="648.25" cy="23" fill="#2E5233" rx="11" ry="11" style="stroke:#E7E7E7;stroke-width:1.0;"/><path d="M650.5938,18.6719 C649.6563,18.2344 649.0625,18.0938 648.1875,18.0938 C645.5625,18.0938 643.5625,20.1719 643.5625,22.8906 L643.5625,24.0156 C643.5625,26.5938 645.6719,28.4844 648.5625,28.4844 C649.7813,28.4844 650.9375,28.1875 651.6875,27.6406 C652.2656,27.2344 652.5938,26.7813 652.5938,26.3906 C652.5938,25.9375 652.2031,25.5469 651.7344,25.5469 C651.5156,25.5469 651.3125,25.625 651.125,25.8125 C650.6719,26.2969 650.6719,26.2969 650.4844,26.3906 C650.0625,26.6563 649.375,26.7813 648.6094,26.7813 C646.5625,26.7813 645.2656,25.6875 645.2656,23.9844 L645.2656,22.8906 C645.2656,21.1094 646.5156,19.7969 648.25,19.7969 C648.8281,19.7969 649.4375,19.9531 649.9063,20.2031 C650.3906,20.4844 650.5625,20.7031 650.6563,21.1094 C650.7188,21.5156 650.75,21.6406 650.8906,21.7656 C651.0313,21.9063 651.2656,22.0156 651.4844,22.0156 C651.75,22.0156 652.0156,21.875 652.1875,21.6563 C652.2969,21.5 652.3281,21.3125 652.3281,20.8906 L652.3281,19.4688 C652.3281,19.0313 652.3125,18.9063 652.2188,18.75 C652.0625,18.4844 651.7813,18.3438 651.4844,18.3438 C651.1875,18.3438 650.9844,18.4375 650.7656,18.75 L650.5938,18.6719 Z " fill="#FFFFFF"/><text fill="#FFFFFF" font-family="sans-serif" font-size="14" lengthAdjust="spacing" textLength="61" x="668.75" y="27.8467">Program</text><line style="stroke:#E7E7E7;stroke-width:0.5;" x1="406.5" x2="959.5" y1="39" y2="39"/><text fill="#FFFFFF" font-family="sans-serif" font-size="14" lengthAdjust="spacing" textLength="108" x="411.5" y="55.9951">programId : str</text><text fill="#FFFFFF" font-family="sans-serif" font-size="14" lengthAdjust="spacing" textLength="59" x="411.5" y="72.292">line : int</text><text fill="#FFFFFF" font-family="sans-serif" font-size="14" lengthAdjust="spacing" textLength="103" x="411.5" y="88.5889">paraDict : dict</text><text fill="#FFFFFF" font-family="sans-serif" font-size="14" lengthAdjust="spacing" textLength="187" x="411.5" y="104.8857">subProgram : SubProgram</text><line style="stroke:#E7E7E7;stroke-width:0.5;" x1="406.5" x2="959.5" y1="112.1875" y2="112.1875"/><text fill="#FFFFFF" font-family="sans-serif" font-size="14" lengthAdjust="spacing" textLength="543" x="411.5" y="129.1826">__init__(programId: str , line: int , paraDict: dict , subProgram: SubProgram )</text></g><!--class SubProgram--><g id="elem_SubProgram"><rect codeLine="11" fill="#313139" height="129.4844" id="SubProgram" rx="2.5" ry="2.5" style="stroke:#E7E7E7;stroke-width:0.5;" width="736" x="315" y="196"/><ellipse cx="634.75" cy="212" fill="#2E5233" rx="11" ry="11" style="stroke:#E7E7E7;stroke-width:1.0;"/><path d="M637.0938,207.6719 C636.1563,207.2344 635.5625,207.0938 634.6875,207.0938 C632.0625,207.0938 630.0625,209.1719 630.0625,211.8906 L630.0625,213.0156 C630.0625,215.5938 632.1719,217.4844 635.0625,217.4844 C636.2813,217.4844 637.4375,217.1875 638.1875,216.6406 C638.7656,216.2344 639.0938,215.7813 639.0938,215.3906 C639.0938,214.9375 638.7031,214.5469 638.2344,214.5469 C638.0156,214.5469 637.8125,214.625 637.625,214.8125 C637.1719,215.2969 637.1719,215.2969 636.9844,215.3906 C636.5625,215.6563 635.875,215.7813 635.1094,215.7813 C633.0625,215.7813 631.7656,214.6875 631.7656,212.9844 L631.7656,211.8906 C631.7656,210.1094 633.0156,208.7969 634.75,208.7969 C635.3281,208.7969 635.9375,208.9531 636.4063,209.2031 C636.8906,209.4844 637.0625,209.7031 637.1563,210.1094 C637.2188,210.5156 637.25,210.6406 637.3906,210.7656 C637.5313,210.9063 637.7656,211.0156 637.9844,211.0156 C638.25,211.0156 638.5156,210.875 638.6875,210.6563 C638.7969,210.5 638.8281,210.3125 638.8281,209.8906 L638.8281,208.4688 C638.8281,208.0313 638.8125,207.9063 638.7188,207.75 C638.5625,207.4844 638.2813,207.3438 637.9844,207.3438 C637.6875,207.3438 637.4844,207.4375 637.2656,207.75 L637.0938,207.6719 Z " fill="#FFFFFF"/><text fill="#FFFFFF" font-family="sans-serif" font-size="14" lengthAdjust="spacing" textLength="88" x="655.25" y="216.8467">SubProgram</text><line style="stroke:#E7E7E7;stroke-width:0.5;" x1="316" x2="1050" y1="228" y2="228"/><text fill="#FFFFFF" font-family="sans-serif" font-size="14" lengthAdjust="spacing" textLength="177" x="321" y="244.9951">constList : list[Constant]</text><text fill="#FFFFFF" font-family="sans-serif" font-size="14" lengthAdjust="spacing" textLength="145" x="321" y="261.292">varList : list[Variant]</text><text fill="#FFFFFF" font-family="sans-serif" font-size="14" lengthAdjust="spacing" textLength="181" x="321" y="277.5889">subDefList : list[FucDefn]</text><text fill="#FFFFFF" font-family="sans-serif" font-size="14" lengthAdjust="spacing" textLength="131" x="321" y="293.8857">block : Compound</text><line style="stroke:#E7E7E7;stroke-width:0.5;" x1="316" x2="1050" y1="301.1875" y2="301.1875"/><text fill="#FFFFFF" font-family="sans-serif" font-size="14" lengthAdjust="spacing" textLength="724" x="321" y="318.1826">__init__(constList: list[Constant] , varList: list[Variant] , subDefList: list[FucDefn]  , block: Compound )</text></g><!--class Constant--><g id="elem_Constant"><rect codeLine="18" fill="#313139" height="162.0781" id="Constant" rx="2.5" ry="2.5" style="stroke:#E7E7E7;stroke-width:0.5;" width="634" x="7" y="623"/><ellipse cx="286.75" cy="639" fill="#2E5233" rx="11" ry="11" style="stroke:#E7E7E7;stroke-width:1.0;"/><path d="M289.0938,634.6719 C288.1563,634.2344 287.5625,634.0938 286.6875,634.0938 C284.0625,634.0938 282.0625,636.1719 282.0625,638.8906 L282.0625,640.0156 C282.0625,642.5938 284.1719,644.4844 287.0625,644.4844 C288.2813,644.4844 289.4375,644.1875 290.1875,643.6406 C290.7656,643.2344 291.0938,642.7813 291.0938,642.3906 C291.0938,641.9375 290.7031,641.5469 290.2344,641.5469 C290.0156,641.5469 289.8125,641.625 289.625,641.8125 C289.1719,642.2969 289.1719,642.2969 288.9844,642.3906 C288.5625,642.6563 287.875,642.7813 287.1094,642.7813 C285.0625,642.7813 283.7656,641.6875 283.7656,639.9844 L283.7656,638.8906 C283.7656,637.1094 285.0156,635.7969 286.75,635.7969 C287.3281,635.7969 287.9375,635.9531 288.4063,636.2031 C288.8906,636.4844 289.0625,636.7031 289.1563,637.1094 C289.2188,637.5156 289.25,637.6406 289.3906,637.7656 C289.5313,637.9063 289.7656,638.0156 289.9844,638.0156 C290.25,638.0156 290.5156,637.875 290.6875,637.6563 C290.7969,637.5 290.8281,637.3125 290.8281,636.8906 L290.8281,635.4688 C290.8281,635.0313 290.8125,634.9063 290.7188,634.75 C290.5625,634.4844 290.2813,634.3438 289.9844,634.3438 C289.6875,634.3438 289.4844,634.4375 289.2656,634.75 L289.0938,634.6719 Z " fill="#FFFFFF"/><text fill="#FFFFFF" font-family="sans-serif" font-size="14" lengthAdjust="spacing" textLength="66" x="307.25" y="643.8467">Constant</text><line style="stroke:#E7E7E7;stroke-width:0.5;" x1="8" x2="640" y1="655" y2="655"/><text fill="#FFFFFF" font-family="sans-serif" font-size="14" lengthAdjust="spacing" textLength="86" x="13" y="671.9951">constId : str</text><text fill="#FFFFFF" font-family="sans-serif" font-size="14" lengthAdjust="spacing" textLength="59" x="13" y="688.292">line : int</text><text fill="#FFFFFF" font-family="sans-serif" font-size="14" lengthAdjust="spacing" textLength="67" x="13" y="704.5889">type : str</text><text fill="#FFFFFF" font-family="sans-serif" font-size="14" lengthAdjust="spacing" textLength="103" x="13" y="720.8857">charValue : str</text><text fill="#FFFFFF" font-family="sans-serif" font-size="14" lengthAdjust="spacing" textLength="92" x="13" y="737.1826">intValue : int</text><text fill="#FFFFFF" font-family="sans-serif" font-size="14" lengthAdjust="spacing" textLength="113" x="13" y="753.4795">realValue : float</text><line style="stroke:#E7E7E7;stroke-width:0.5;" x1="8" x2="640" y1="760.7813" y2="760.7813"/><text fill="#FFFFFF" font-family="sans-serif" font-size="14" lengthAdjust="spacing" textLength="622" x="13" y="777.7764">__init__(constId: str , line: int , type: str , charValue: str , intValue: int , realValue: float )</text></g><!--class Variant--><g id="elem_Variant"><rect codeLine="27" fill="#313139" height="96.8906" id="Variant" rx="2.5" ry="2.5" style="stroke:#E7E7E7;stroke-width:0.5;" width="233" x="676.5" y="655.5"/><ellipse cx="762.75" cy="671.5" fill="#2E5233" rx="11" ry="11" style="stroke:#E7E7E7;stroke-width:1.0;"/><path d="M765.0938,667.1719 C764.1563,666.7344 763.5625,666.5938 762.6875,666.5938 C760.0625,666.5938 758.0625,668.6719 758.0625,671.3906 L758.0625,672.5156 C758.0625,675.0938 760.1719,676.9844 763.0625,676.9844 C764.2813,676.9844 765.4375,676.6875 766.1875,676.1406 C766.7656,675.7344 767.0938,675.2813 767.0938,674.8906 C767.0938,674.4375 766.7031,674.0469 766.2344,674.0469 C766.0156,674.0469 765.8125,674.125 765.625,674.3125 C765.1719,674.7969 765.1719,674.7969 764.9844,674.8906 C764.5625,675.1563 763.875,675.2813 763.1094,675.2813 C761.0625,675.2813 759.7656,674.1875 759.7656,672.4844 L759.7656,671.3906 C759.7656,669.6094 761.0156,668.2969 762.75,668.2969 C763.3281,668.2969 763.9375,668.4531 764.4063,668.7031 C764.8906,668.9844 765.0625,669.2031 765.1563,669.6094 C765.2188,670.0156 765.25,670.1406 765.3906,670.2656 C765.5313,670.4063 765.7656,670.5156 765.9844,670.5156 C766.25,670.5156 766.5156,670.375 766.6875,670.1563 C766.7969,670 766.8281,669.8125 766.8281,669.3906 L766.8281,667.9688 C766.8281,667.5313 766.8125,667.4063 766.7188,667.25 C766.5625,666.9844 766.2813,666.8438 765.9844,666.8438 C765.6875,666.8438 765.4844,666.9375 765.2656,667.25 L765.0938,667.1719 Z " fill="#FFFFFF"/><text fill="#FFFFFF" font-family="sans-serif" font-size="14" lengthAdjust="spacing" textLength="52" x="783.25" y="676.3467">Variant</text><line style="stroke:#E7E7E7;stroke-width:0.5;" x1="677.5" x2="908.5" y1="687.5" y2="687.5"/><text fill="#FFFFFF" font-family="sans-serif" font-size="14" lengthAdjust="spacing" textLength="68" x="682.5" y="704.4951">varId : str</text><text fill="#FFFFFF" font-family="sans-serif" font-size="14" lengthAdjust="spacing" textLength="83" x="682.5" y="720.792">type : Type</text><line style="stroke:#E7E7E7;stroke-width:0.5;" x1="677.5" x2="908.5" y1="728.0938" y2="728.0938"/><text fill="#FFFFFF" font-family="sans-serif" font-size="14" lengthAdjust="spacing" textLength="221" x="682.5" y="745.0889">__init__(varId: str , type: Type )</text></g><!--class Type--><g id="elem_Type"><rect codeLine="32" fill="#313139" height="145.7813" id="Type" rx="2.5" ry="2.5" style="stroke:#E7E7E7;stroke-width:0.5;" width="560" x="513" y="845"/><ellipse cx="770.75" cy="861" fill="#2E5233" rx="11" ry="11" style="stroke:#E7E7E7;stroke-width:1.0;"/><path d="M773.0938,856.6719 C772.1563,856.2344 771.5625,856.0938 770.6875,856.0938 C768.0625,856.0938 766.0625,858.1719 766.0625,860.8906 L766.0625,862.0156 C766.0625,864.5938 768.1719,866.4844 771.0625,866.4844 C772.2813,866.4844 773.4375,866.1875 774.1875,865.6406 C774.7656,865.2344 775.0938,864.7813 775.0938,864.3906 C775.0938,863.9375 774.7031,863.5469 774.2344,863.5469 C774.0156,863.5469 773.8125,863.625 773.625,863.8125 C773.1719,864.2969 773.1719,864.2969 772.9844,864.3906 C772.5625,864.6563 771.875,864.7813 771.1094,864.7813 C769.0625,864.7813 767.7656,863.6875 767.7656,861.9844 L767.7656,860.8906 C767.7656,859.1094 769.0156,857.7969 770.75,857.7969 C771.3281,857.7969 771.9375,857.9531 772.4063,858.2031 C772.8906,858.4844 773.0625,858.7031 773.1563,859.1094 C773.2188,859.5156 773.25,859.6406 773.3906,859.7656 C773.5313,859.9063 773.7656,860.0156 773.9844,860.0156 C774.25,860.0156 774.5156,859.875 774.6875,859.6563 C774.7969,859.5 774.8281,859.3125 774.8281,858.8906 L774.8281,857.4688 C774.8281,857.0313 774.8125,856.9063 774.7188,856.75 C774.5625,856.4844 774.2813,856.3438 773.9844,856.3438 C773.6875,856.3438 773.4844,856.4375 773.2656,856.75 L773.0938,856.6719 Z " fill="#FFFFFF"/><text fill="#FFFFFF" font-family="sans-serif" font-size="14" lengthAdjust="spacing" textLength="36" x="791.25" y="865.8467">Type</text><line style="stroke:#E7E7E7;stroke-width:0.5;" x1="514" x2="1072" y1="877" y2="877"/><text fill="#FFFFFF" font-family="sans-serif" font-size="14" lengthAdjust="spacing" textLength="67" x="519" y="893.9951">type : str</text><text fill="#FFFFFF" font-family="sans-serif" font-size="14" lengthAdjust="spacing" textLength="59" x="519" y="910.292">line : int</text><text fill="#FFFFFF" font-family="sans-serif" font-size="14" lengthAdjust="spacing" textLength="94" x="519" y="926.5889">arrFlag : bool</text><text fill="#FFFFFF" font-family="sans-serif" font-size="14" lengthAdjust="spacing" textLength="117" x="519" y="942.8857">lowerBound : int</text><text fill="#FFFFFF" font-family="sans-serif" font-size="14" lengthAdjust="spacing" textLength="121" x="519" y="959.1826">upperBound : int</text><line style="stroke:#E7E7E7;stroke-width:0.5;" x1="514" x2="1072" y1="966.4844" y2="966.4844"/><text fill="#FFFFFF" font-family="sans-serif" font-size="14" lengthAdjust="spacing" textLength="548" x="519" y="983.4795">__init__(type: str , line: int , arrFlag: bool, lowerBound: int , upperBound: int )</text></g><!--class FucDefn--><g id="elem_FucDefn"><rect codeLine="40" fill="#313139" height="178.375" id="FucDefn" rx="2.5" ry="2.5" style="stroke:#E7E7E7;stroke-width:0.5;" width="1047" x="448.5" y="385"/><ellipse cx="938.25" cy="401" fill="#2E5233" rx="11" ry="11" style="stroke:#E7E7E7;stroke-width:1.0;"/><path d="M940.5938,396.6719 C939.6563,396.2344 939.0625,396.0938 938.1875,396.0938 C935.5625,396.0938 933.5625,398.1719 933.5625,400.8906 L933.5625,402.0156 C933.5625,404.5938 935.6719,406.4844 938.5625,406.4844 C939.7813,406.4844 940.9375,406.1875 941.6875,405.6406 C942.2656,405.2344 942.5938,404.7813 942.5938,404.3906 C942.5938,403.9375 942.2031,403.5469 941.7344,403.5469 C941.5156,403.5469 941.3125,403.625 941.125,403.8125 C940.6719,404.2969 940.6719,404.2969 940.4844,404.3906 C940.0625,404.6563 939.375,404.7813 938.6094,404.7813 C936.5625,404.7813 935.2656,403.6875 935.2656,401.9844 L935.2656,400.8906 C935.2656,399.1094 936.5156,397.7969 938.25,397.7969 C938.8281,397.7969 939.4375,397.9531 939.9063,398.2031 C940.3906,398.4844 940.5625,398.7031 940.6563,399.1094 C940.7188,399.5156 940.75,399.6406 940.8906,399.7656 C941.0313,399.9063 941.2656,400.0156 941.4844,400.0156 C941.75,400.0156 942.0156,399.875 942.1875,399.6563 C942.2969,399.5 942.3281,399.3125 942.3281,398.8906 L942.3281,397.4688 C942.3281,397.0313 942.3125,396.9063 942.2188,396.75 C942.0625,396.4844 941.7813,396.3438 941.4844,396.3438 C941.1875,396.3438 940.9844,396.4375 940.7656,396.75 L940.5938,396.6719 Z " fill="#FFFFFF"/><text fill="#FFFFFF" font-family="sans-serif" font-size="14" lengthAdjust="spacing" textLength="59" x="958.75" y="405.8467">FucDefn</text><line style="stroke:#E7E7E7;stroke-width:0.5;" x1="449.5" x2="1494.5" y1="417" y2="417"/><text fill="#FFFFFF" font-family="sans-serif" font-size="14" lengthAdjust="spacing" textLength="68" x="454.5" y="433.9951">fucId : str</text><text fill="#FFFFFF" font-family="sans-serif" font-size="14" lengthAdjust="spacing" textLength="59" x="454.5" y="450.292">line : int</text><text fill="#FFFFFF" font-family="sans-serif" font-size="14" lengthAdjust="spacing" textLength="274" x="454.5" y="466.5889">formalParaList : list[FormalParameter]</text><text fill="#FFFFFF" font-family="sans-serif" font-size="14" lengthAdjust="spacing" textLength="67" x="454.5" y="482.8857">type : str</text><text fill="#FFFFFF" font-family="sans-serif" font-size="14" lengthAdjust="spacing" textLength="177" x="454.5" y="499.1826">constList : list[Constant]</text><text fill="#FFFFFF" font-family="sans-serif" font-size="14" lengthAdjust="spacing" textLength="145" x="454.5" y="515.4795">varList : list[Variant]</text><text fill="#FFFFFF" font-family="sans-serif" font-size="14" lengthAdjust="spacing" textLength="131" x="454.5" y="531.7764">block : Compound</text><line style="stroke:#E7E7E7;stroke-width:0.5;" x1="449.5" x2="1494.5" y1="539.0781" y2="539.0781"/><text fill="#FFFFFF" font-family="sans-serif" font-size="14" lengthAdjust="spacing" textLength="1035" x="454.5" y="556.0732">__init__(fucId: str , line: int , formalParaList: list[FormalParameter]  , type: str , constList: list[Constant] , varList: list[Variant] , block: Compound )</text></g><!--class FormalParameter--><g id="elem_FormalParameter"><rect codeLine="50" fill="#313139" height="129.4844" id="FormalParameter" rx="2.5" ry="2.5" style="stroke:#E7E7E7;stroke-width:0.5;" width="378" x="945" y="639.5"/><ellipse cx="1067.25" cy="655.5" fill="#2E5233" rx="11" ry="11" style="stroke:#E7E7E7;stroke-width:1.0;"/><path d="M1069.5938,651.1719 C1068.6563,650.7344 1068.0625,650.5938 1067.1875,650.5938 C1064.5625,650.5938 1062.5625,652.6719 1062.5625,655.3906 L1062.5625,656.5156 C1062.5625,659.0938 1064.6719,660.9844 1067.5625,660.9844 C1068.7813,660.9844 1069.9375,660.6875 1070.6875,660.1406 C1071.2656,659.7344 1071.5938,659.2813 1071.5938,658.8906 C1071.5938,658.4375 1071.2031,658.0469 1070.7344,658.0469 C1070.5156,658.0469 1070.3125,658.125 1070.125,658.3125 C1069.6719,658.7969 1069.6719,658.7969 1069.4844,658.8906 C1069.0625,659.1563 1068.375,659.2813 1067.6094,659.2813 C1065.5625,659.2813 1064.2656,658.1875 1064.2656,656.4844 L1064.2656,655.3906 C1064.2656,653.6094 1065.5156,652.2969 1067.25,652.2969 C1067.8281,652.2969 1068.4375,652.4531 1068.9063,652.7031 C1069.3906,652.9844 1069.5625,653.2031 1069.6563,653.6094 C1069.7188,654.0156 1069.75,654.1406 1069.8906,654.2656 C1070.0313,654.4063 1070.2656,654.5156 1070.4844,654.5156 C1070.75,654.5156 1071.0156,654.375 1071.1875,654.1563 C1071.2969,654 1071.3281,653.8125 1071.3281,653.3906 L1071.3281,651.9688 C1071.3281,651.5313 1071.3125,651.4063 1071.2188,651.25 C1071.0625,650.9844 1070.7813,650.8438 1070.4844,650.8438 C1070.1875,650.8438 1069.9844,650.9375 1069.7656,651.25 L1069.5938,651.1719 Z " fill="#FFFFFF"/><text fill="#FFFFFF" font-family="sans-serif" font-size="14" lengthAdjust="spacing" textLength="125" x="1087.75" y="660.3467">FormalParameter</text><line style="stroke:#E7E7E7;stroke-width:0.5;" x1="946" x2="1322" y1="671.5" y2="671.5"/><text fill="#FFFFFF" font-family="sans-serif" font-size="14" lengthAdjust="spacing" textLength="78" x="951" y="688.4951">paraId : str</text><text fill="#FFFFFF" font-family="sans-serif" font-size="14" lengthAdjust="spacing" textLength="59" x="951" y="704.792">line : int</text><text fill="#FFFFFF" font-family="sans-serif" font-size="14" lengthAdjust="spacing" textLength="67" x="951" y="721.0889">type : str</text><text fill="#FFFFFF" font-family="sans-serif" font-size="14" lengthAdjust="spacing" textLength="72" x="951" y="737.3857">flag : bool</text><line style="stroke:#E7E7E7;stroke-width:0.5;" x1="946" x2="1322" y1="744.6875" y2="744.6875"/><text fill="#FFFFFF" font-family="sans-serif" font-size="14" lengthAdjust="spacing" textLength="366" x="951" y="761.6826">__init__(paraId: str , line: int  , type: str , flag: bool )</text></g><!--class Expression--><g id="elem_Expression"><rect codeLine="57" fill="#313139" height="259.8594" id="Expression" rx="2.5" ry="2.5" style="stroke:#E7E7E7;stroke-width:0.5;" width="1396" x="1315" y="1240"/><ellipse cx="1969.75" cy="1256" fill="#2E5233" rx="11" ry="11" style="stroke:#E7E7E7;stroke-width:1.0;"/><path d="M1972.0938,1251.6719 C1971.1563,1251.2344 1970.5625,1251.0938 1969.6875,1251.0938 C1967.0625,1251.0938 1965.0625,1253.1719 1965.0625,1255.8906 L1965.0625,1257.0156 C1965.0625,1259.5938 1967.1719,1261.4844 1970.0625,1261.4844 C1971.2813,1261.4844 1972.4375,1261.1875 1973.1875,1260.6406 C1973.7656,1260.2344 1974.0938,1259.7813 1974.0938,1259.3906 C1974.0938,1258.9375 1973.7031,1258.5469 1973.2344,1258.5469 C1973.0156,1258.5469 1972.8125,1258.625 1972.625,1258.8125 C1972.1719,1259.2969 1972.1719,1259.2969 1971.9844,1259.3906 C1971.5625,1259.6563 1970.875,1259.7813 1970.1094,1259.7813 C1968.0625,1259.7813 1966.7656,1258.6875 1966.7656,1256.9844 L1966.7656,1255.8906 C1966.7656,1254.1094 1968.0156,1252.7969 1969.75,1252.7969 C1970.3281,1252.7969 1970.9375,1252.9531 1971.4063,1253.2031 C1971.8906,1253.4844 1972.0625,1253.7031 1972.1563,1254.1094 C1972.2188,1254.5156 1972.25,1254.6406 1972.3906,1254.7656 C1972.5313,1254.9063 1972.7656,1255.0156 1972.9844,1255.0156 C1973.25,1255.0156 1973.5156,1254.875 1973.6875,1254.6563 C1973.7969,1254.5 1973.8281,1254.3125 1973.8281,1253.8906 L1973.8281,1252.4688 C1973.8281,1252.0313 1973.8125,1251.9063 1973.7188,1251.75 C1973.5625,1251.4844 1973.2813,1251.3438 1972.9844,1251.3438 C1972.6875,1251.3438 1972.4844,1251.4375 1972.2656,1251.75 L1972.0938,1251.6719 Z " fill="#FFFFFF"/><text fill="#FFFFFF" font-family="sans-serif" font-size="14" lengthAdjust="spacing" textLength="78" x="1990.25" y="1260.8467">Expression</text><line style="stroke:#E7E7E7;stroke-width:0.5;" x1="1316" x2="2710" y1="1272" y2="1272"/><text fill="#FFFFFF" font-family="sans-serif" font-size="14" lengthAdjust="spacing" textLength="67" x="1321" y="1288.9951">type : str</text><text fill="#FFFFFF" font-family="sans-serif" font-size="14" lengthAdjust="spacing" textLength="59" x="1321" y="1305.292">line : int</text><text fill="#FFFFFF" font-family="sans-serif" font-size="14" lengthAdjust="spacing" textLength="159" x="1321" y="1321.5889">varRef : VarReference</text><text fill="#FFFFFF" font-family="sans-serif" font-size="14" lengthAdjust="spacing" textLength="85" x="1321" y="1337.8857">intNum : int</text><text fill="#FFFFFF" font-family="sans-serif" font-size="14" lengthAdjust="spacing" textLength="106" x="1321" y="1354.1826">realNum : float</text><text fill="#FFFFFF" font-family="sans-serif" font-size="14" lengthAdjust="spacing" textLength="102" x="1321" y="1370.4795">strOfNum : str</text><text fill="#FFFFFF" font-family="sans-serif" font-size="14" lengthAdjust="spacing" textLength="86" x="1321" y="1386.7764">charVal : str</text><text fill="#FFFFFF" font-family="sans-serif" font-size="14" lengthAdjust="spacing" textLength="111" x="1321" y="1403.0732">fucCall : FucCall</text><text fill="#FFFFFF" font-family="sans-serif" font-size="14" lengthAdjust="spacing" textLength="104" x="1321" y="1419.3701">operation : str</text><text fill="#FFFFFF" font-family="sans-serif" font-size="14" lengthAdjust="spacing" textLength="88" x="1321" y="1435.667">opType : str</text><text fill="#FFFFFF" font-family="sans-serif" font-size="14" lengthAdjust="spacing" textLength="134" x="1321" y="1451.9639">subE1 : Expression</text><text fill="#FFFFFF" font-family="sans-serif" font-size="14" lengthAdjust="spacing" textLength="133" x="1321" y="1468.2607">subE2 : Expression</text><line style="stroke:#E7E7E7;stroke-width:0.5;" x1="1316" x2="2710" y1="1475.5625" y2="1475.5625"/><text fill="#FFFFFF" font-family="sans-serif" font-size="14" lengthAdjust="spacing" textLength="1384" x="1321" y="1492.5576">__init__(type: str , line: int , varRef: VarReference , intNum: int , realNum: float , strOfNum: str , charVal: str , fucCall: FucCall , operation: str , opType: str , subE1: Expression , subE2: Expression )</text></g><!--class FucCall--><g id="elem_FucCall"><rect codeLine="72" fill="#313139" height="113.1875" id="FucCall" rx="2.5" ry="2.5" style="stroke:#E7E7E7;stroke-width:0.5;" width="420" x="1803" y="1568"/><ellipse cx="1983.75" cy="1584" fill="#2E5233" rx="11" ry="11" style="stroke:#E7E7E7;stroke-width:1.0;"/><path d="M1986.0938,1579.6719 C1985.1563,1579.2344 1984.5625,1579.0938 1983.6875,1579.0938 C1981.0625,1579.0938 1979.0625,1581.1719 1979.0625,1583.8906 L1979.0625,1585.0156 C1979.0625,1587.5938 1981.1719,1589.4844 1984.0625,1589.4844 C1985.2813,1589.4844 1986.4375,1589.1875 1987.1875,1588.6406 C1987.7656,1588.2344 1988.0938,1587.7813 1988.0938,1587.3906 C1988.0938,1586.9375 1987.7031,1586.5469 1987.2344,1586.5469 C1987.0156,1586.5469 1986.8125,1586.625 1986.625,1586.8125 C1986.1719,1587.2969 1986.1719,1587.2969 1985.9844,1587.3906 C1985.5625,1587.6563 1984.875,1587.7813 1984.1094,1587.7813 C1982.0625,1587.7813 1980.7656,1586.6875 1980.7656,1584.9844 L1980.7656,1583.8906 C1980.7656,1582.1094 1982.0156,1580.7969 1983.75,1580.7969 C1984.3281,1580.7969 1984.9375,1580.9531 1985.4063,1581.2031 C1985.8906,1581.4844 1986.0625,1581.7031 1986.1563,1582.1094 C1986.2188,1582.5156 1986.25,1582.6406 1986.3906,1582.7656 C1986.5313,1582.9063 1986.7656,1583.0156 1986.9844,1583.0156 C1987.25,1583.0156 1987.5156,1582.875 1987.6875,1582.6563 C1987.7969,1582.5 1987.8281,1582.3125 1987.8281,1581.8906 L1987.8281,1580.4688 C1987.8281,1580.0313 1987.8125,1579.9063 1987.7188,1579.75 C1987.5625,1579.4844 1987.2813,1579.3438 1986.9844,1579.3438 C1986.6875,1579.3438 1986.4844,1579.4375 1986.2656,1579.75 L1986.0938,1579.6719 Z " fill="#FFFFFF"/><text fill="#FFFFFF" font-family="sans-serif" font-size="14" lengthAdjust="spacing" textLength="50" x="2004.25" y="1588.8467">FucCall</text><line style="stroke:#E7E7E7;stroke-width:0.5;" x1="1804" x2="2222" y1="1600" y2="1600"/><text fill="#FFFFFF" font-family="sans-serif" font-size="14" lengthAdjust="spacing" textLength="68" x="1809" y="1616.9951">fucId : str</text><text fill="#FFFFFF" font-family="sans-serif" font-size="14" lengthAdjust="spacing" textLength="59" x="1809" y="1633.292">line : int</text><text fill="#FFFFFF" font-family="sans-serif" font-size="14" lengthAdjust="spacing" textLength="203" x="1809" y="1649.5889">actParaList : list[Expression]</text><line style="stroke:#E7E7E7;stroke-width:0.5;" x1="1804" x2="2222" y1="1656.8906" y2="1656.8906"/><text fill="#FFFFFF" font-family="sans-serif" font-size="14" lengthAdjust="spacing" textLength="408" x="1809" y="1673.8857">__init__(fucId: str , line: int , actParaList: list[Expression] )</text></g><!--class VarReference--><g id="elem_VarReference"><rect codeLine="78" fill="#313139" height="129.4844" id="VarReference" rx="2.5" ry="2.5" style="stroke:#E7E7E7;stroke-width:0.5;" width="473" x="2258.5" y="1560"/><ellipse cx="2441.25" cy="1576" fill="#2E5233" rx="11" ry="11" style="stroke:#E7E7E7;stroke-width:1.0;"/><path d="M2443.5938,1571.6719 C2442.6563,1571.2344 2442.0625,1571.0938 2441.1875,1571.0938 C2438.5625,1571.0938 2436.5625,1573.1719 2436.5625,1575.8906 L2436.5625,1577.0156 C2436.5625,1579.5938 2438.6719,1581.4844 2441.5625,1581.4844 C2442.7813,1581.4844 2443.9375,1581.1875 2444.6875,1580.6406 C2445.2656,1580.2344 2445.5938,1579.7813 2445.5938,1579.3906 C2445.5938,1578.9375 2445.2031,1578.5469 2444.7344,1578.5469 C2444.5156,1578.5469 2444.3125,1578.625 2444.125,1578.8125 C2443.6719,1579.2969 2443.6719,1579.2969 2443.4844,1579.3906 C2443.0625,1579.6563 2442.375,1579.7813 2441.6094,1579.7813 C2439.5625,1579.7813 2438.2656,1578.6875 2438.2656,1576.9844 L2438.2656,1575.8906 C2438.2656,1574.1094 2439.5156,1572.7969 2441.25,1572.7969 C2441.8281,1572.7969 2442.4375,1572.9531 2442.9063,1573.2031 C2443.3906,1573.4844 2443.5625,1573.7031 2443.6563,1574.1094 C2443.7188,1574.5156 2443.75,1574.6406 2443.8906,1574.7656 C2444.0313,1574.9063 2444.2656,1575.0156 2444.4844,1575.0156 C2444.75,1575.0156 2445.0156,1574.875 2445.1875,1574.6563 C2445.2969,1574.5 2445.3281,1574.3125 2445.3281,1573.8906 L2445.3281,1572.4688 C2445.3281,1572.0313 2445.3125,1571.9063 2445.2188,1571.75 C2445.0625,1571.4844 2444.7813,1571.3438 2444.4844,1571.3438 C2444.1875,1571.3438 2443.9844,1571.4375 2443.7656,1571.75 L2443.5938,1571.6719 Z " fill="#FFFFFF"/><text fill="#FFFFFF" font-family="sans-serif" font-size="14" lengthAdjust="spacing" textLength="99" x="2461.75" y="1580.8467">VarReference</text><line style="stroke:#E7E7E7;stroke-width:0.5;" x1="2259.5" x2="2730.5" y1="1592" y2="1592"/><text fill="#FFFFFF" font-family="sans-serif" font-size="14" lengthAdjust="spacing" textLength="68" x="2264.5" y="1608.9951">varId : str</text><text fill="#FFFFFF" font-family="sans-serif" font-size="14" lengthAdjust="spacing" textLength="59" x="2264.5" y="1625.292">line : int</text><text fill="#FFFFFF" font-family="sans-serif" font-size="14" lengthAdjust="spacing" textLength="176" x="2264.5" y="1641.5889">expList : list[Expression]</text><text fill="#FFFFFF" font-family="sans-serif" font-size="14" lengthAdjust="spacing" textLength="72" x="2264.5" y="1657.8857">flag : bool</text><line style="stroke:#E7E7E7;stroke-width:0.5;" x1="2259.5" x2="2730.5" y1="1665.1875" y2="1665.1875"/><text fill="#FFFFFF" font-family="sans-serif" font-size="14" lengthAdjust="spacing" textLength="461" x="2264.5" y="1682.1826">__init__(varId: str , line: int , expList: list[Expression] , flag: bool )</text></g><!--class Statement--><g id="elem_Statement"><rect codeLine="85" fill="#313139" height="113.1875" id="Statement" rx="2.5" ry="2.5" style="stroke:#E7E7E7;stroke-width:0.5;" width="323" x="1362.5" y="861.5"/><ellipse cx="1480.25" cy="877.5" fill="#2E5233" rx="11" ry="11" style="stroke:#E7E7E7;stroke-width:1.0;"/><path d="M1482.5938,873.1719 C1481.6563,872.7344 1481.0625,872.5938 1480.1875,872.5938 C1477.5625,872.5938 1475.5625,874.6719 1475.5625,877.3906 L1475.5625,878.5156 C1475.5625,881.0938 1477.6719,882.9844 1480.5625,882.9844 C1481.7813,882.9844 1482.9375,882.6875 1483.6875,882.1406 C1484.2656,881.7344 1484.5938,881.2813 1484.5938,880.8906 C1484.5938,880.4375 1484.2031,880.0469 1483.7344,880.0469 C1483.5156,880.0469 1483.3125,880.125 1483.125,880.3125 C1482.6719,880.7969 1482.6719,880.7969 1482.4844,880.8906 C1482.0625,881.1563 1481.375,881.2813 1480.6094,881.2813 C1478.5625,881.2813 1477.2656,880.1875 1477.2656,878.4844 L1477.2656,877.3906 C1477.2656,875.6094 1478.5156,874.2969 1480.25,874.2969 C1480.8281,874.2969 1481.4375,874.4531 1481.9063,874.7031 C1482.3906,874.9844 1482.5625,875.2031 1482.6563,875.6094 C1482.7188,876.0156 1482.75,876.1406 1482.8906,876.2656 C1483.0313,876.4063 1483.2656,876.5156 1483.4844,876.5156 C1483.75,876.5156 1484.0156,876.375 1484.1875,876.1563 C1484.2969,876 1484.3281,875.8125 1484.3281,875.3906 L1484.3281,873.9688 C1484.3281,873.5313 1484.3125,873.4063 1484.2188,873.25 C1484.0625,872.9844 1483.7813,872.8438 1483.4844,872.8438 C1483.1875,872.8438 1482.9844,872.9375 1482.7656,873.25 L1482.5938,873.1719 Z " fill="#FFFFFF"/><text fill="#FFFFFF" font-family="sans-serif" font-size="14" lengthAdjust="spacing" textLength="79" x="1500.75" y="882.3467">Statement</text><line style="stroke:#E7E7E7;stroke-width:0.5;" x1="1363.5" x2="1684.5" y1="893.5" y2="893.5"/><text fill="#FFFFFF" font-family="sans-serif" font-size="14" lengthAdjust="spacing" textLength="59" x="1368.5" y="910.4951">line : int</text><text fill="#FFFFFF" font-family="sans-serif" font-size="14" lengthAdjust="spacing" textLength="67" x="1368.5" y="926.792">type : str</text><text fill="#FFFFFF" font-family="sans-serif" font-size="14" lengthAdjust="spacing" textLength="107" x="1368.5" y="943.0889">stateType : str</text><line style="stroke:#E7E7E7;stroke-width:0.5;" x1="1363.5" x2="1684.5" y1="950.3906" y2="950.3906"/><text fill="#FFFFFF" font-family="sans-serif" font-size="14" lengthAdjust="spacing" textLength="311" x="1368.5" y="967.3857">__init__(line: int , type: str , stateType: str )</text></g><!--class Assign--><g id="elem_Assign"><rect codeLine="91" fill="#313139" height="96.8906" id="Assign" rx="2.5" ry="2.5" style="stroke:#E7E7E7;stroke-width:0.5;" width="359" x="2724.5" y="1067"/><ellipse cx="2876.75" cy="1083" fill="#2E5233" rx="11" ry="11" style="stroke:#E7E7E7;stroke-width:1.0;"/><path d="M2879.0938,1078.6719 C2878.1563,1078.2344 2877.5625,1078.0938 2876.6875,1078.0938 C2874.0625,1078.0938 2872.0625,1080.1719 2872.0625,1082.8906 L2872.0625,1084.0156 C2872.0625,1086.5938 2874.1719,1088.4844 2877.0625,1088.4844 C2878.2813,1088.4844 2879.4375,1088.1875 2880.1875,1087.6406 C2880.7656,1087.2344 2881.0938,1086.7813 2881.0938,1086.3906 C2881.0938,1085.9375 2880.7031,1085.5469 2880.2344,1085.5469 C2880.0156,1085.5469 2879.8125,1085.625 2879.625,1085.8125 C2879.1719,1086.2969 2879.1719,1086.2969 2878.9844,1086.3906 C2878.5625,1086.6563 2877.875,1086.7813 2877.1094,1086.7813 C2875.0625,1086.7813 2873.7656,1085.6875 2873.7656,1083.9844 L2873.7656,1082.8906 C2873.7656,1081.1094 2875.0156,1079.7969 2876.75,1079.7969 C2877.3281,1079.7969 2877.9375,1079.9531 2878.4063,1080.2031 C2878.8906,1080.4844 2879.0625,1080.7031 2879.1563,1081.1094 C2879.2188,1081.5156 2879.25,1081.6406 2879.3906,1081.7656 C2879.5313,1081.9063 2879.7656,1082.0156 2879.9844,1082.0156 C2880.25,1082.0156 2880.5156,1081.875 2880.6875,1081.6563 C2880.7969,1081.5 2880.8281,1081.3125 2880.8281,1080.8906 L2880.8281,1079.4688 C2880.8281,1079.0313 2880.8125,1078.9063 2880.7188,1078.75 C2880.5625,1078.4844 2880.2813,1078.3438 2879.9844,1078.3438 C2879.6875,1078.3438 2879.4844,1078.4375 2879.2656,1078.75 L2879.0938,1078.6719 Z " fill="#FFFFFF"/><text fill="#FFFFFF" font-family="sans-serif" font-size="14" lengthAdjust="spacing" textLength="46" x="2897.25" y="1087.8467">Assign</text><line style="stroke:#E7E7E7;stroke-width:0.5;" x1="2725.5" x2="3082.5" y1="1099" y2="1099"/><text fill="#FFFFFF" font-family="sans-serif" font-size="14" lengthAdjust="spacing" textLength="159" x="2730.5" y="1115.9951">varRef : VarReference</text><text fill="#FFFFFF" font-family="sans-serif" font-size="14" lengthAdjust="spacing" textLength="118" x="2730.5" y="1132.292">exp : Expression</text><line style="stroke:#E7E7E7;stroke-width:0.5;" x1="2725.5" x2="3082.5" y1="1139.5938" y2="1139.5938"/><text fill="#FFFFFF" font-family="sans-serif" font-size="14" lengthAdjust="spacing" textLength="347" x="2730.5" y="1156.5889">__init__(varRef: VarReference , exp: Expression )</text></g><!--class If--><g id="elem_If"><rect codeLine="96" fill="#313139" height="113.1875" id="If" rx="2.5" ry="2.5" style="stroke:#E7E7E7;stroke-width:0.5;" width="487" x="1280.5" y="1059"/><ellipse cx="1514.75" cy="1075" fill="#2E5233" rx="11" ry="11" style="stroke:#E7E7E7;stroke-width:1.0;"/><path d="M1517.0938,1070.6719 C1516.1563,1070.2344 1515.5625,1070.0938 1514.6875,1070.0938 C1512.0625,1070.0938 1510.0625,1072.1719 1510.0625,1074.8906 L1510.0625,1076.0156 C1510.0625,1078.5938 1512.1719,1080.4844 1515.0625,1080.4844 C1516.2813,1080.4844 1517.4375,1080.1875 1518.1875,1079.6406 C1518.7656,1079.2344 1519.0938,1078.7813 1519.0938,1078.3906 C1519.0938,1077.9375 1518.7031,1077.5469 1518.2344,1077.5469 C1518.0156,1077.5469 1517.8125,1077.625 1517.625,1077.8125 C1517.1719,1078.2969 1517.1719,1078.2969 1516.9844,1078.3906 C1516.5625,1078.6563 1515.875,1078.7813 1515.1094,1078.7813 C1513.0625,1078.7813 1511.7656,1077.6875 1511.7656,1075.9844 L1511.7656,1074.8906 C1511.7656,1073.1094 1513.0156,1071.7969 1514.75,1071.7969 C1515.3281,1071.7969 1515.9375,1071.9531 1516.4063,1072.2031 C1516.8906,1072.4844 1517.0625,1072.7031 1517.1563,1073.1094 C1517.2188,1073.5156 1517.25,1073.6406 1517.3906,1073.7656 C1517.5313,1073.9063 1517.7656,1074.0156 1517.9844,1074.0156 C1518.25,1074.0156 1518.5156,1073.875 1518.6875,1073.6563 C1518.7969,1073.5 1518.8281,1073.3125 1518.8281,1072.8906 L1518.8281,1071.4688 C1518.8281,1071.0313 1518.8125,1070.9063 1518.7188,1070.75 C1518.5625,1070.4844 1518.2813,1070.3438 1517.9844,1070.3438 C1517.6875,1070.3438 1517.4844,1070.4375 1517.2656,1070.75 L1517.0938,1070.6719 Z " fill="#FFFFFF"/><text fill="#FFFFFF" font-family="sans-serif" font-size="14" lengthAdjust="spacing" textLength="10" x="1535.25" y="1079.8467">If</text><line style="stroke:#E7E7E7;stroke-width:0.5;" x1="1281.5" x2="1766.5" y1="1091" y2="1091"/><text fill="#FFFFFF" font-family="sans-serif" font-size="14" lengthAdjust="spacing" textLength="159" x="1286.5" y="1107.9951">condition : Expression</text><text fill="#FFFFFF" font-family="sans-serif" font-size="14" lengthAdjust="spacing" textLength="126" x="1286.5" y="1124.292">then : Statement</text><text fill="#FFFFFF" font-family="sans-serif" font-size="14" lengthAdjust="spacing" textLength="112" x="1286.5" y="1140.5889">els : Statement</text><line style="stroke:#E7E7E7;stroke-width:0.5;" x1="1281.5" x2="1766.5" y1="1147.8906" y2="1147.8906"/><text fill="#FFFFFF" font-family="sans-serif" font-size="14" lengthAdjust="spacing" textLength="475" x="1286.5" y="1164.8857">__init__(condition: Expression , then: Statement , els: Statement )</text></g><!--class While--><g id="elem_While"><rect codeLine="102" fill="#313139" height="96.8906" id="While" rx="2.5" ry="2.5" style="stroke:#E7E7E7;stroke-width:0.5;" width="351" x="1802.5" y="1067"/><ellipse cx="1953.75" cy="1083" fill="#2E5233" rx="11" ry="11" style="stroke:#E7E7E7;stroke-width:1.0;"/><path d="M1956.0938,1078.6719 C1955.1563,1078.2344 1954.5625,1078.0938 1953.6875,1078.0938 C1951.0625,1078.0938 1949.0625,1080.1719 1949.0625,1082.8906 L1949.0625,1084.0156 C1949.0625,1086.5938 1951.1719,1088.4844 1954.0625,1088.4844 C1955.2813,1088.4844 1956.4375,1088.1875 1957.1875,1087.6406 C1957.7656,1087.2344 1958.0938,1086.7813 1958.0938,1086.3906 C1958.0938,1085.9375 1957.7031,1085.5469 1957.2344,1085.5469 C1957.0156,1085.5469 1956.8125,1085.625 1956.625,1085.8125 C1956.1719,1086.2969 1956.1719,1086.2969 1955.9844,1086.3906 C1955.5625,1086.6563 1954.875,1086.7813 1954.1094,1086.7813 C1952.0625,1086.7813 1950.7656,1085.6875 1950.7656,1083.9844 L1950.7656,1082.8906 C1950.7656,1081.1094 1952.0156,1079.7969 1953.75,1079.7969 C1954.3281,1079.7969 1954.9375,1079.9531 1955.4063,1080.2031 C1955.8906,1080.4844 1956.0625,1080.7031 1956.1563,1081.1094 C1956.2188,1081.5156 1956.25,1081.6406 1956.3906,1081.7656 C1956.5313,1081.9063 1956.7656,1082.0156 1956.9844,1082.0156 C1957.25,1082.0156 1957.5156,1081.875 1957.6875,1081.6563 C1957.7969,1081.5 1957.8281,1081.3125 1957.8281,1080.8906 L1957.8281,1079.4688 C1957.8281,1079.0313 1957.8125,1078.9063 1957.7188,1078.75 C1957.5625,1078.4844 1957.2813,1078.3438 1956.9844,1078.3438 C1956.6875,1078.3438 1956.4844,1078.4375 1956.2656,1078.75 L1956.0938,1078.6719 Z " fill="#FFFFFF"/><text fill="#FFFFFF" font-family="sans-serif" font-size="14" lengthAdjust="spacing" textLength="40" x="1974.25" y="1087.8467">While</text><line style="stroke:#E7E7E7;stroke-width:0.5;" x1="1803.5" x2="2152.5" y1="1099" y2="1099"/><text fill="#FFFFFF" font-family="sans-serif" font-size="14" lengthAdjust="spacing" textLength="159" x="1808.5" y="1115.9951">condition : Expression</text><text fill="#FFFFFF" font-family="sans-serif" font-size="14" lengthAdjust="spacing" textLength="110" x="1808.5" y="1132.292">do : Statement</text><line style="stroke:#E7E7E7;stroke-width:0.5;" x1="1803.5" x2="2152.5" y1="1139.5938" y2="1139.5938"/><text fill="#FFFFFF" font-family="sans-serif" font-size="14" lengthAdjust="spacing" textLength="339" x="1808.5" y="1156.5889">__init__(condition: Expression , do: Statement )</text></g><!--class For--><g id="elem_For"><rect codeLine="107" fill="#313139" height="129.4844" id="For" rx="2.5" ry="2.5" style="stroke:#E7E7E7;stroke-width:0.5;" width="501" x="2188.5" y="1051"/><ellipse cx="2423.25" cy="1067" fill="#2E5233" rx="11" ry="11" style="stroke:#E7E7E7;stroke-width:1.0;"/><path d="M2425.5938,1062.6719 C2424.6563,1062.2344 2424.0625,1062.0938 2423.1875,1062.0938 C2420.5625,1062.0938 2418.5625,1064.1719 2418.5625,1066.8906 L2418.5625,1068.0156 C2418.5625,1070.5938 2420.6719,1072.4844 2423.5625,1072.4844 C2424.7813,1072.4844 2425.9375,1072.1875 2426.6875,1071.6406 C2427.2656,1071.2344 2427.5938,1070.7813 2427.5938,1070.3906 C2427.5938,1069.9375 2427.2031,1069.5469 2426.7344,1069.5469 C2426.5156,1069.5469 2426.3125,1069.625 2426.125,1069.8125 C2425.6719,1070.2969 2425.6719,1070.2969 2425.4844,1070.3906 C2425.0625,1070.6563 2424.375,1070.7813 2423.6094,1070.7813 C2421.5625,1070.7813 2420.2656,1069.6875 2420.2656,1067.9844 L2420.2656,1066.8906 C2420.2656,1065.1094 2421.5156,1063.7969 2423.25,1063.7969 C2423.8281,1063.7969 2424.4375,1063.9531 2424.9063,1064.2031 C2425.3906,1064.4844 2425.5625,1064.7031 2425.6563,1065.1094 C2425.7188,1065.5156 2425.75,1065.6406 2425.8906,1065.7656 C2426.0313,1065.9063 2426.2656,1066.0156 2426.4844,1066.0156 C2426.75,1066.0156 2427.0156,1065.875 2427.1875,1065.6563 C2427.2969,1065.5 2427.3281,1065.3125 2427.3281,1064.8906 L2427.3281,1063.4688 C2427.3281,1063.0313 2427.3125,1062.9063 2427.2188,1062.75 C2427.0625,1062.4844 2426.7813,1062.3438 2426.4844,1062.3438 C2426.1875,1062.3438 2425.9844,1062.4375 2425.7656,1062.75 L2425.5938,1062.6719 Z " fill="#FFFFFF"/><text fill="#FFFFFF" font-family="sans-serif" font-size="14" lengthAdjust="spacing" textLength="23" x="2443.75" y="1071.8467">For</text><line style="stroke:#E7E7E7;stroke-width:0.5;" x1="2189.5" x2="2688.5" y1="1083" y2="1083"/><text fill="#FFFFFF" font-family="sans-serif" font-size="14" lengthAdjust="spacing" textLength="46" x="2194.5" y="1099.9951">id : str</text><text fill="#FFFFFF" font-family="sans-serif" font-size="14" lengthAdjust="spacing" textLength="129" x="2194.5" y="1116.292">state : Expression</text><text fill="#FFFFFF" font-family="sans-serif" font-size="14" lengthAdjust="spacing" textLength="118" x="2194.5" y="1132.5889">end : Expression</text><text fill="#FFFFFF" font-family="sans-serif" font-size="14" lengthAdjust="spacing" textLength="110" x="2194.5" y="1148.8857">do : Statement</text><line style="stroke:#E7E7E7;stroke-width:0.5;" x1="2189.5" x2="2688.5" y1="1156.1875" y2="1156.1875"/><text fill="#FFFFFF" font-family="sans-serif" font-size="14" lengthAdjust="spacing" textLength="489" x="2194.5" y="1173.1826">__init__(id: str , state: Expression , end: Expression , do: Statement )</text></g><!--class Repeat--><g id="elem_Repeat"><rect codeLine="114" fill="#313139" height="96.8906" id="Repeat" rx="2.5" ry="2.5" style="stroke:#E7E7E7;stroke-width:0.5;" width="351" x="494.5" y="1067"/><ellipse cx="639.25" cy="1083" fill="#2E5233" rx="11" ry="11" style="stroke:#E7E7E7;stroke-width:1.0;"/><path d="M641.5938,1078.6719 C640.6563,1078.2344 640.0625,1078.0938 639.1875,1078.0938 C636.5625,1078.0938 634.5625,1080.1719 634.5625,1082.8906 L634.5625,1084.0156 C634.5625,1086.5938 636.6719,1088.4844 639.5625,1088.4844 C640.7813,1088.4844 641.9375,1088.1875 642.6875,1087.6406 C643.2656,1087.2344 643.5938,1086.7813 643.5938,1086.3906 C643.5938,1085.9375 643.2031,1085.5469 642.7344,1085.5469 C642.5156,1085.5469 642.3125,1085.625 642.125,1085.8125 C641.6719,1086.2969 641.6719,1086.2969 641.4844,1086.3906 C641.0625,1086.6563 640.375,1086.7813 639.6094,1086.7813 C637.5625,1086.7813 636.2656,1085.6875 636.2656,1083.9844 L636.2656,1082.8906 C636.2656,1081.1094 637.5156,1079.7969 639.25,1079.7969 C639.8281,1079.7969 640.4375,1079.9531 640.9063,1080.2031 C641.3906,1080.4844 641.5625,1080.7031 641.6563,1081.1094 C641.7188,1081.5156 641.75,1081.6406 641.8906,1081.7656 C642.0313,1081.9063 642.2656,1082.0156 642.4844,1082.0156 C642.75,1082.0156 643.0156,1081.875 643.1875,1081.6563 C643.2969,1081.5 643.3281,1081.3125 643.3281,1080.8906 L643.3281,1079.4688 C643.3281,1079.0313 643.3125,1078.9063 643.2188,1078.75 C643.0625,1078.4844 642.7813,1078.3438 642.4844,1078.3438 C642.1875,1078.3438 641.9844,1078.4375 641.7656,1078.75 L641.5938,1078.6719 Z " fill="#FFFFFF"/><text fill="#FFFFFF" font-family="sans-serif" font-size="14" lengthAdjust="spacing" textLength="53" x="659.75" y="1087.8467">Repeat</text><line style="stroke:#E7E7E7;stroke-width:0.5;" x1="495.5" x2="844.5" y1="1099" y2="1099"/><text fill="#FFFFFF" font-family="sans-serif" font-size="14" lengthAdjust="spacing" textLength="159" x="500.5" y="1115.9951">condition : Expression</text><text fill="#FFFFFF" font-family="sans-serif" font-size="14" lengthAdjust="spacing" textLength="110" x="500.5" y="1132.292">do : Statement</text><line style="stroke:#E7E7E7;stroke-width:0.5;" x1="495.5" x2="844.5" y1="1139.5938" y2="1139.5938"/><text fill="#FFFFFF" font-family="sans-serif" font-size="14" lengthAdjust="spacing" textLength="339" x="500.5" y="1156.5889">__init__(condition: Expression , do: Statement )</text></g><!--class Compound--><g id="elem_Compound"><rect codeLine="119" fill="#313139" height="80.5938" id="Compound" rx="2.5" ry="2.5" style="stroke:#E7E7E7;stroke-width:0.5;" width="282" x="1383" y="663.5"/><ellipse cx="1480.75" cy="679.5" fill="#2E5233" rx="11" ry="11" style="stroke:#E7E7E7;stroke-width:1.0;"/><path d="M1483.0938,675.1719 C1482.1563,674.7344 1481.5625,674.5938 1480.6875,674.5938 C1478.0625,674.5938 1476.0625,676.6719 1476.0625,679.3906 L1476.0625,680.5156 C1476.0625,683.0938 1478.1719,684.9844 1481.0625,684.9844 C1482.2813,684.9844 1483.4375,684.6875 1484.1875,684.1406 C1484.7656,683.7344 1485.0938,683.2813 1485.0938,682.8906 C1485.0938,682.4375 1484.7031,682.0469 1484.2344,682.0469 C1484.0156,682.0469 1483.8125,682.125 1483.625,682.3125 C1483.1719,682.7969 1483.1719,682.7969 1482.9844,682.8906 C1482.5625,683.1563 1481.875,683.2813 1481.1094,683.2813 C1479.0625,683.2813 1477.7656,682.1875 1477.7656,680.4844 L1477.7656,679.3906 C1477.7656,677.6094 1479.0156,676.2969 1480.75,676.2969 C1481.3281,676.2969 1481.9375,676.4531 1482.4063,676.7031 C1482.8906,676.9844 1483.0625,677.2031 1483.1563,677.6094 C1483.2188,678.0156 1483.25,678.1406 1483.3906,678.2656 C1483.5313,678.4063 1483.7656,678.5156 1483.9844,678.5156 C1484.25,678.5156 1484.5156,678.375 1484.6875,678.1563 C1484.7969,678 1484.8281,677.8125 1484.8281,677.3906 L1484.8281,675.9688 C1484.8281,675.5313 1484.8125,675.4063 1484.7188,675.25 C1484.5625,674.9844 1484.2813,674.8438 1483.9844,674.8438 C1483.6875,674.8438 1483.4844,674.9375 1483.2656,675.25 L1483.0938,675.1719 Z " fill="#FFFFFF"/><text fill="#FFFFFF" font-family="sans-serif" font-size="14" lengthAdjust="spacing" textLength="78" x="1501.25" y="684.3467">Compound</text><line style="stroke:#E7E7E7;stroke-width:0.5;" x1="1384" x2="1664" y1="695.5" y2="695.5"/><text fill="#FFFFFF" font-family="sans-serif" font-size="14" lengthAdjust="spacing" textLength="208" x="1389" y="712.4951">statements : list[Statement]</text><line style="stroke:#E7E7E7;stroke-width:0.5;" x1="1384" x2="1664" y1="719.7969" y2="719.7969"/><text fill="#FFFFFF" font-family="sans-serif" font-size="14" lengthAdjust="spacing" textLength="270" x="1389" y="736.792">__init__(statements: list[Statement] )</text></g><!--class ProcCall--><g id="elem_ProcCall"><rect codeLine="123" fill="#313139" height="96.8906" id="ProcCall" rx="2.5" ry="2.5" style="stroke:#E7E7E7;stroke-width:0.5;" width="364" x="881" y="1067"/><ellipse cx="1029.75" cy="1083" fill="#2E5233" rx="11" ry="11" style="stroke:#E7E7E7;stroke-width:1.0;"/><path d="M1032.0938,1078.6719 C1031.1563,1078.2344 1030.5625,1078.0938 1029.6875,1078.0938 C1027.0625,1078.0938 1025.0625,1080.1719 1025.0625,1082.8906 L1025.0625,1084.0156 C1025.0625,1086.5938 1027.1719,1088.4844 1030.0625,1088.4844 C1031.2813,1088.4844 1032.4375,1088.1875 1033.1875,1087.6406 C1033.7656,1087.2344 1034.0938,1086.7813 1034.0938,1086.3906 C1034.0938,1085.9375 1033.7031,1085.5469 1033.2344,1085.5469 C1033.0156,1085.5469 1032.8125,1085.625 1032.625,1085.8125 C1032.1719,1086.2969 1032.1719,1086.2969 1031.9844,1086.3906 C1031.5625,1086.6563 1030.875,1086.7813 1030.1094,1086.7813 C1028.0625,1086.7813 1026.7656,1085.6875 1026.7656,1083.9844 L1026.7656,1082.8906 C1026.7656,1081.1094 1028.0156,1079.7969 1029.75,1079.7969 C1030.3281,1079.7969 1030.9375,1079.9531 1031.4063,1080.2031 C1031.8906,1080.4844 1032.0625,1080.7031 1032.1563,1081.1094 C1032.2188,1081.5156 1032.25,1081.6406 1032.3906,1081.7656 C1032.5313,1081.9063 1032.7656,1082.0156 1032.9844,1082.0156 C1033.25,1082.0156 1033.5156,1081.875 1033.6875,1081.6563 C1033.7969,1081.5 1033.8281,1081.3125 1033.8281,1080.8906 L1033.8281,1079.4688 C1033.8281,1079.0313 1033.8125,1078.9063 1033.7188,1078.75 C1033.5625,1078.4844 1033.2813,1078.3438 1032.9844,1078.3438 C1032.6875,1078.3438 1032.4844,1078.4375 1032.2656,1078.75 L1032.0938,1078.6719 Z " fill="#FFFFFF"/><text fill="#FFFFFF" font-family="sans-serif" font-size="14" lengthAdjust="spacing" textLength="58" x="1050.25" y="1087.8467">ProcCall</text><line style="stroke:#E7E7E7;stroke-width:0.5;" x1="882" x2="1244" y1="1099" y2="1099"/><text fill="#FFFFFF" font-family="sans-serif" font-size="14" lengthAdjust="spacing" textLength="79" x="887" y="1115.9951">procId : str</text><text fill="#FFFFFF" font-family="sans-serif" font-size="14" lengthAdjust="spacing" textLength="203" x="887" y="1132.292">actParaList : list[Expression]</text><line style="stroke:#E7E7E7;stroke-width:0.5;" x1="882" x2="1244" y1="1139.5938" y2="1139.5938"/><text fill="#FFFFFF" font-family="sans-serif" font-size="14" lengthAdjust="spacing" textLength="352" x="887" y="1156.5889">__init__(procId: str , actParaList: list[Expression] )</text></g><!--link Program to SubProgram--><g id="link_Program_SubProgram"><path codeLine="128" d="M683,136.07 C683,155.34 683,170.51 683,189.79 " fill="none" id="Program-to-SubProgram" style="stroke:#E7E7E7;stroke-width:1.0;"/><polygon fill="#E7E7E7" points="683,195.79,687,186.79,683,190.79,679,186.79,683,195.79" style="stroke:#E7E7E7;stroke-width:1.0;"/></g><!--link SubProgram to Constant--><g id="link_SubProgram_Constant"><path codeLine="129" d="M462.532,325.14 C434.704,340.96 409.023,360.61 389,385 C334.207,451.75 321.8242,546.5409 320.6292,616.7009 " fill="none" id="SubProgram-to-Constant" style="stroke:#E7E7E7;stroke-width:1.0;"/><polygon fill="#E7E7E7" points="320.527,622.7,324.6797,613.7694,320.6122,617.7007,316.6809,613.6332,320.527,622.7" style="stroke:#E7E7E7;stroke-width:1.0;"/></g><!--link SubProgram to Variant--><g id="link_SubProgram_Variant"><path codeLine="130" d="M492.007,325.01 C467.794,340.9 446.21,360.61 431,385 C389.141,452.13 382.7,500.34 431,563 C494.974,645.99 562.397,582.41 659,623 C680.107,631.87 696.7259,640.5283 716.4249,652.2683 " fill="none" id="SubProgram-to-Variant" style="stroke:#E7E7E7;stroke-width:1.0;"/><polygon fill="#E7E7E7" points="721.579,655.34,715.8956,647.2964,717.2839,652.7803,711.8001,654.1685,721.579,655.34" style="stroke:#E7E7E7;stroke-width:1.0;"/></g><!--link SubProgram to FucDefn--><g id="link_SubProgram_FucDefn"><path codeLine="131" d="M770.101,325.24 C795.779,344.04 819.502,361.3967 846.874,381.4267 " fill="none" id="SubProgram-to-FucDefn" style="stroke:#E7E7E7;stroke-width:1.0;"/><polygon fill="#E7E7E7" points="851.716,384.97,846.8151,376.4271,847.681,382.0173,842.0908,382.8831,851.716,384.97" style="stroke:#E7E7E7;stroke-width:1.0;"/></g><!--link SubProgram to Compound--><g id="link_SubProgram_Compound"><path codeLine="132" d="M1051.15,271.07 C1243.2,284.54 1450.87,315.42 1513,385 C1581.98,462.26 1557.4626,591.1692 1538.5226,657.7092 " fill="none" id="SubProgram-to-Compound" style="stroke:#E7E7E7;stroke-width:1.0;"/><polygon fill="#E7E7E7" points="1536.88,663.48,1543.1911,655.9189,1538.2488,658.671,1535.4967,653.7288,1536.88,663.48" style="stroke:#E7E7E7;stroke-width:1.0;"/></g><!--link Variant to Type--><g id="link_Variant_Type"><path codeLine="133" d="M793,752.577 C793,779.679 793,808.19 793,838.591 " fill="none" id="Variant-to-Type" style="stroke:#E7E7E7;stroke-width:1.0;"/><polygon fill="#E7E7E7" points="793,844.591,797,835.591,793,839.591,789,835.591,793,844.591" style="stroke:#E7E7E7;stroke-width:1.0;"/></g><!--link FucDefn to FormalParameter--><g id="link_FucDefn_FormalParameter"><path codeLine="134" d="M1034.63,563.15 C1052.71,588.59 1068.5947,610.9489 1085.3847,634.5789 " fill="none" id="FucDefn-to-FormalParameter" style="stroke:#E7E7E7;stroke-width:1.0;"/><polygon fill="#E7E7E7" points="1088.86,639.47,1086.9078,629.8166,1085.9639,635.3941,1080.3864,634.4503,1088.86,639.47" style="stroke:#E7E7E7;stroke-width:1.0;"/></g><!--link FucDefn to Constant--><g id="link_FucDefn_Constant"><path codeLine="135" d="M721.466,563.15 C665.551,582.82 612.2148,601.5883 557.2838,620.9183 " fill="none" id="FucDefn-to-Constant" style="stroke:#E7E7E7;stroke-width:1.0;"/><polygon fill="#E7E7E7" points="551.624,622.91,561.4415,623.6957,556.3405,621.2503,558.7859,616.1493,551.624,622.91" style="stroke:#E7E7E7;stroke-width:1.0;"/></g><!--link FucDefn to Variant--><g id="link_FucDefn_Variant"><path codeLine="136" d="M902.794,563.15 C878.199,594.48 855.1513,623.8408 834.2113,650.5108 " fill="none" id="FucDefn-to-Variant" style="stroke:#E7E7E7;stroke-width:1.0;"/><polygon fill="#E7E7E7" points="830.506,655.23,839.2101,650.6214,833.5937,651.2973,832.9178,645.681,830.506,655.23" style="stroke:#E7E7E7;stroke-width:1.0;"/></g><!--link FucDefn to Compound--><g id="link_FucDefn_Compound"><path codeLine="137" d="M1194.9,563.12 C1243.18,582.57 1293.89,603.26 1341,623 C1371.7,635.86 1399.6155,647.9196 1429.3855,660.9796 " fill="none" id="FucDefn-to-Compound" style="stroke:#E7E7E7;stroke-width:1.0;"/><polygon fill="#E7E7E7" points="1434.88,663.39,1428.2452,656.1113,1430.3012,661.3813,1425.0313,663.4374,1434.88,663.39" style="stroke:#E7E7E7;stroke-width:1.0;"/></g><!--link Expression to VarReference--><g id="link_Expression_VarReference"><path codeLine="138" d="M2246.55,1500.024 C2286.35,1520.854 2321.0846,1538.8588 2357.0946,1557.2178 " fill="none" id="Expression-to-VarReference" style="stroke:#E7E7E7;stroke-width:1.0;"/><polygon fill="#E7E7E7" points="2362.44,1559.943,2356.2388,1552.2916,2357.9855,1557.672,2352.6051,1559.4187,2362.44,1559.943" style="stroke:#E7E7E7;stroke-width:1.0;"/></g><!--link VarReference to Expression--><g id="link_VarReference_Expression"><path codeLine="143" d="M2385.57,1559.943 C2351.55,1541.584 2317.8237,1523.6406 2278.1037,1502.8106 " fill="none" id="VarReference-to-Expression" style="stroke:#E7E7E7;stroke-width:1.0;"/><polygon fill="#E7E7E7" points="2272.79,1500.024,2278.9028,1507.7463,2277.218,1502.3462,2282.6182,1500.6615,2272.79,1500.024" style="stroke:#E7E7E7;stroke-width:1.0;"/></g><!--link Expression to FucCall--><g id="link_Expression_FucCall"><path codeLine="139" d="M2000.25,1500.209 C2000.3,1523.99 2000.588,1541.6435 2001.838,1561.7675 " fill="none" id="Expression-to-FucCall" style="stroke:#E7E7E7;stroke-width:1.0;"/><polygon fill="#E7E7E7" points="2002.21,1567.756,2005.6443,1558.5253,2001.9,1562.7656,1997.6597,1559.0213,2002.21,1567.756" style="stroke:#E7E7E7;stroke-width:1.0;"/></g><!--link FucCall to Expression--><g id="link_FucCall_Expression"><path codeLine="142" d="M2024.42,1567.756 C2025.75,1547.632 2026.4249,1529.99 2026.4849,1506.209 " fill="none" id="FucCall-to-Expression" style="stroke:#E7E7E7;stroke-width:1.0;"/><polygon fill="#E7E7E7" points="2026.5,1500.209,2022.4773,1509.1989,2026.4874,1505.209,2030.4773,1509.2191,2026.5,1500.209" style="stroke:#E7E7E7;stroke-width:1.0;"/></g><!--link Expression to Expression--><g id="link_Expression_Expression"><path codeLine="140" d="M2711,1357.125 C2733.31,1360.592 2746,1364.884 2746,1370 C2746,1375.116 2739.2388,1378.4867 2716.9288,1381.9537 " fill="none" id="Expression-to-Expression" style="stroke:#E7E7E7;stroke-width:1.0;"/><polygon fill="#E7E7E7" points="2711,1382.875,2720.5075,1385.4455,2715.9407,1382.1072,2719.279,1377.5404,2711,1382.875" style="stroke:#E7E7E7;stroke-width:1.0;"/></g><!--link Expression to Expression--><g id="link_Expression_Expression"><path codeLine="141" d="M2711.09,1336.618 C2754.72,1344.486 2781,1355.613 2781,1370 C2781,1384.387 2760.6248,1394.4492 2716.9948,1402.3172 " fill="none" id="Expression-to-Expression-1" style="stroke:#E7E7E7;stroke-width:1.0;"/><polygon fill="#E7E7E7" points="2711.09,1403.382,2720.657,1405.7213,2716.0106,1402.4946,2719.2372,1397.8482,2711.09,1403.382" style="stroke:#E7E7E7;stroke-width:1.0;"/></g><!--reverse link Statement to Assign--><g id="link_Statement_Assign"><path codeLine="144" d="M1703.8697,927.8076 C1933.2697,941.1296 2347.09,973.735 2707,1051 C2727.2,1055.337 2748.27,1060.929 2768.79,1066.994 " fill="none" id="Statement-backto-Assign" style="stroke:#E7E7E7;stroke-width:1.0;"/><polygon fill="none" points="1685.9,926.764,1703.5219,933.7975,1704.2176,921.8177,1685.9,926.764" style="stroke:#E7E7E7;stroke-width:1.0;"/></g><!--link Assign to VarReference--><g id="link_Assign_VarReference"><path codeLine="145" d="M2898.67,1164.159 C2887.47,1243.309 2854.64,1402.761 2765,1500 C2742.81,1524.066 2720.2796,1540.9047 2691.0296,1556.9617 " fill="none" id="Assign-to-VarReference" style="stroke:#E7E7E7;stroke-width:1.0;"/><polygon fill="#E7E7E7" points="2685.77,1559.849,2695.5843,1559.0245,2690.153,1557.4429,2691.7345,1552.0116,2685.77,1559.849" style="stroke:#E7E7E7;stroke-width:1.0;"/></g><!--link Assign to Expression--><g id="link_Assign_Expression"><path codeLine="146" d="M2759,1164.073 C2741.51,1169.562 2723.88,1174.984 2707,1180 C2639.67,1200.009 2574.1998,1218.7383 2504.0098,1238.2993 " fill="none" id="Assign-to-Expression" style="stroke:#E7E7E7;stroke-width:1.0;"/><polygon fill="#E7E7E7" points="2498.23,1239.91,2507.9735,1241.3471,2503.0465,1238.5677,2505.8258,1233.6407,2498.23,1239.91" style="stroke:#E7E7E7;stroke-width:1.0;"/></g><!--reverse link Statement to If--><g id="link_Statement_If"><path codeLine="147" d="M1497.9628,992.6419 C1494.9228,1018.9379 1496.99,1032.359 1500.02,1058.665 " fill="none" id="Statement-backto-If" style="stroke:#E7E7E7;stroke-width:1.0;"/><polygon fill="none" points="1500.03,974.761,1492.0025,991.9529,1503.9231,993.331,1500.03,974.761" style="stroke:#E7E7E7;stroke-width:1.0;"/></g><!--link If to Statement--><g id="link_If_Statement"><path codeLine="149" d="M1524,1058.665 C1524,1032.359 1524,1007.057 1524,980.761 " fill="none" id="If-to-Statement" style="stroke:#E7E7E7;stroke-width:1.0;"/><polygon fill="#E7E7E7" points="1524,974.761,1520,983.761,1524,979.761,1528,983.761,1524,974.761" style="stroke:#E7E7E7;stroke-width:1.0;"/></g><!--link If to Statement--><g id="link_If_Statement"><path codeLine="150" d="M1547.98,1058.665 C1551.01,1032.359 1551.6991,1007.0173 1548.6591,980.7213 " fill="none" id="If-to-Statement-1" style="stroke:#E7E7E7;stroke-width:1.0;"/><polygon fill="#E7E7E7" points="1547.97,974.761,1545.03,984.1608,1548.5442,979.7279,1552.9771,983.2421,1547.97,974.761" style="stroke:#E7E7E7;stroke-width:1.0;"/></g><!--link If to Expression--><g id="link_If_Expression"><path codeLine="148" d="M1631.62,1172.068 C1670.7,1192.251 1711.3488,1213.2371 1757.5888,1237.1141 " fill="none" id="If-to-Expression" style="stroke:#E7E7E7;stroke-width:1.0;"/><polygon fill="#E7E7E7" points="1762.92,1239.867,1756.7585,1232.1836,1758.4773,1237.5729,1753.088,1239.2918,1762.92,1239.867" style="stroke:#E7E7E7;stroke-width:1.0;"/></g><!--reverse link Statement to While--><g id="link_Statement_While"><path codeLine="151" d="M1658.0177,981.8974 C1724.0077,1011.0194 1789.66,1039.04 1856.3,1066.886 " fill="none" id="Statement-backto-While" style="stroke:#E7E7E7;stroke-width:1.0;"/><polygon fill="none" points="1641.55,974.63,1655.5953,987.3866,1660.4402,976.4081,1641.55,974.63" style="stroke:#E7E7E7;stroke-width:1.0;"/></g><!--link While to Statement--><g id="link_While_Statement"><path codeLine="153" d="M1879.21,1066.886 C1816.64,1039.04 1740.4022,1006.0748 1671.0422,976.9528 " fill="none" id="While-to-Statement" style="stroke:#E7E7E7;stroke-width:1.0;"/><polygon fill="#E7E7E7" points="1665.51,974.63,1672.2597,981.8023,1670.1201,976.5656,1675.3567,974.4261,1665.51,974.63" style="stroke:#E7E7E7;stroke-width:1.0;"/></g><!--link While to Expression--><g id="link_While_Expression"><path codeLine="152" d="M1984.62,1164.29 C1987.64,1186.022 1990.5359,1206.9499 1994.2859,1233.9929 " fill="none" id="While-to-Expression" style="stroke:#E7E7E7;stroke-width:1.0;"/><polygon fill="#E7E7E7" points="1995.11,1239.936,1997.8359,1230.4719,1994.4232,1234.9834,1989.9117,1231.5707,1995.11,1239.936" style="stroke:#E7E7E7;stroke-width:1.0;"/></g><!--reverse link Statement to For--><g id="link_Statement_For"><path codeLine="154" d="M1703.2716,956.8753 C1830.6716,982.6873 1994.89,1015.928 2154,1051 C2165.21,1053.47 2176.67,1056.035 2188.25,1058.656 " fill="none" id="Statement-backto-For" style="stroke:#E7E7E7;stroke-width:1.0;"/><polygon fill="none" points="1685.63,953.301,1702.0801,962.7558,1704.463,950.9948,1685.63,953.301" style="stroke:#E7E7E7;stroke-width:1.0;"/></g><!--link For to Statement--><g id="link_For_Statement"><path codeLine="157" d="M2188.75,1050.945 C2017.8,1013.267 1826.5328,974.7153 1691.4628,948.8303 " fill="none" id="For-to-Statement" style="stroke:#E7E7E7;stroke-width:1.0;"/><polygon fill="#E7E7E7" points="1685.57,947.701,1693.6563,953.3235,1690.4806,948.6421,1695.162,945.4664,1685.57,947.701" style="stroke:#E7E7E7;stroke-width:1.0;"/></g><!--link For to Expression--><g id="link_For_Expression"><path codeLine="155" d="M2320.54,1180.053 C2288.64,1198.388 2258.3831,1216.0294 2223.2431,1236.8324 " fill="none" id="For-to-Expression" style="stroke:#E7E7E7;stroke-width:1.0;"/><polygon fill="#E7E7E7" points="2218.08,1239.889,2227.8623,1238.7462,2222.3826,1237.3419,2223.7869,1231.8621,2218.08,1239.889" style="stroke:#E7E7E7;stroke-width:1.0;"/></g><!--link For to Expression--><g id="link_For_Expression"><path codeLine="156" d="M2343.67,1180.053 C2313.76,1198.388 2284.54,1216.0243 2249.48,1236.8273 " fill="none" id="For-to-Expression-1" style="stroke:#E7E7E7;stroke-width:1.0;"/><polygon fill="#E7E7E7" points="2244.32,1239.889,2254.1012,1238.7364,2248.62,1237.3376,2250.0189,1231.8564,2244.32,1239.889" style="stroke:#E7E7E7;stroke-width:1.0;"/></g><!--reverse link Statement to Repeat--><g id="link_Statement_Repeat"><path codeLine="158" d="M1344.6728,946.4572 C1206.4528,969.8702 1020.91,1005.321 847,1051 C828.919,1055.749 810.053,1061.237 791.641,1066.958 " fill="none" id="Statement-backto-Repeat" style="stroke:#E7E7E7;stroke-width:1.0;"/><polygon fill="none" points="1362.42,943.451,1343.6707,940.5415,1345.6749,952.3729,1362.42,943.451" style="stroke:#E7E7E7;stroke-width:1.0;"/></g><!--link Repeat to Statement--><g id="link_Repeat_Statement"><path codeLine="160" d="M826.335,1066.958 C845.053,1061.237 863.919,1055.749 882,1051 C1044.18,1008.401 1226.0165,973.1547 1356.5365,949.4617 " fill="none" id="Repeat-to-Statement" style="stroke:#E7E7E7;stroke-width:1.0;"/><polygon fill="#E7E7E7" points="1362.44,948.39,1352.8703,946.0618,1357.5204,949.283,1354.2992,953.9332,1362.44,948.39" style="stroke:#E7E7E7;stroke-width:1.0;"/></g><!--link Repeat to Expression--><g id="link_Repeat_Expression"><path codeLine="159" d="M806.494,1164.07 C825.672,1169.904 845.238,1175.415 864,1180 C1008.71,1215.363 1159.3968,1245.0109 1309.0468,1270.7519 " fill="none" id="Repeat-to-Expression" style="stroke:#E7E7E7;stroke-width:1.0;"/><polygon fill="#E7E7E7" points="1314.96,1271.769,1306.7683,1266.3012,1310.0324,1270.9214,1305.4122,1274.1854,1314.96,1271.769" style="stroke:#E7E7E7;stroke-width:1.0;"/></g><!--reverse link Statement to Compound--><g id="link_Statement_Compound"><path codeLine="161" d="M1537.1698,843.3389 C1539.4498,806.7589 1537.92,777.74 1534.82,744.876 " fill="none" id="Statement-backto-Compound" style="stroke:#E7E7E7;stroke-width:1.0;"/><polygon fill="none" points="1536.05,861.304,1543.1581,843.7121,1531.1814,842.9656,1536.05,861.304" style="stroke:#E7E7E7;stroke-width:1.0;"/></g><!--link Compound to Statement--><g id="link_Compound_Statement"><path codeLine="162" d="M1513.78,744.876 C1510.85,777.74 1510.118,818.7343 1512.268,855.3143 " fill="none" id="Compound-to-Statement" style="stroke:#E7E7E7;stroke-width:1.0;"/><polygon fill="#E7E7E7" points="1512.62,861.304,1516.085,852.0848,1512.3266,856.3126,1508.0988,852.5542,1512.62,861.304" style="stroke:#E7E7E7;stroke-width:1.0;"/></g><!--reverse link Statement to ProcCall--><g id="link_Statement_ProcCall"><path codeLine="163" d="M1376.2486,981.6577 C1307.5786,1010.7797 1240.94,1039.04 1175.28,1066.886 " fill="none" id="Statement-backto-ProcCall" style="stroke:#E7E7E7;stroke-width:1.0;"/><polygon fill="none" points="1392.82,974.63,1373.906,976.1339,1378.5912,987.1815,1392.82,974.63" style="stroke:#E7E7E7;stroke-width:1.0;"/></g><!--link ProcCall to Expression--><g id="link_ProcCall_Expression"><path codeLine="164" d="M1209.33,1164.081 C1227.36,1169.611 1245.57,1175.041 1263,1180 C1334.28,1200.276 1403.8739,1219.0808 1478.3039,1238.4788 " fill="none" id="ProcCall-to-Expression" style="stroke:#E7E7E7;stroke-width:1.0;"/><polygon fill="#E7E7E7" points="1484.11,1239.992,1476.4097,1233.8515,1479.2716,1238.731,1474.3921,1241.5929,1484.11,1239.992" style="stroke:#E7E7E7;stroke-width:1.0;"/></g><!--SRC=[nLTBRzGm4BxdL-G8KlP0ZnL2WZwaIWYgjYe7LAsyYTD6E77aED0A-E_uxV7aiTtsG2_RV1v_yyraPkoKZ0n3VltKxZYx8Jj6yzzPxlwsswPhv7RxvctsDokDuQNWzuAqmAYto4ML7-U35BbPO4r7rNFJIVlS4q5Ecr8ghD8_1Xp6dQSxpg_ZGvRu3loMlZ3Sbhe8l8ws09m9PGm0W366adU3_DmCMXzJFzzFD40wUMV5_2G2hjuIqSH5vVAKrd3zV2mLqjtbrc37UFb3hPtmjkTZLw40W_E9xy8xnduBu7JYix0EWRyOlUV6iQ-_FVdKKxXUFX1nIzYOWChQOs6Ze8Hvi6QSoBdGvz-izkdnuCy3tfSt3dwycnYnona8MEKq3TU5TwD_Kdt6r3krYenLf3UFaHjd2cUI277EoBs2TfmpQy9_KV79l2TWEFRz31g4mUp0h3b-Iry0RcyGUIqI8t4518AfntAzBcekMi8kLGycrH_GbaegV1TCYkWrFRUdfOpokVoaYXS5e_9xIOCkzo1o1qUfmXOpFf_5EbOJdfk6R9e455mToWL8F7li1Hs6XdS7rBPAnHMj5N9h_g62TYKDi-7BsEB9O24m5nJrrzgYUDOaCO_b2M4QEdV_6PYhoYPIQmQslBz1ijNaF7kd011Zm8zcyBqzP-D6OHSkPZYXpACDjmYneXaNNekDB8POnFYyZOtDFvcu4laMEqgmfDyDyG7zJag9cprItpst1m7B34aokMC-LyOtLaaV-rM5oosJZ7iesL7EC2uqqBKaahOqENVsdQg3teEhDMXREXl3BWj42H-LmlikJTnIVwhurYf_eSBLheNQkgZJ2qRLkBx4BkG3rN1CbvN3XYa8BmsM3nMxveAx2iq3WQZlsqEJN7JN95Ry1LegFkzOpNxWjgacxtz603LtW8DaDLLI7aWSrOV_i-HUqPuI-JyI5SxDw7lmPeDlxR0HpvveEhLClcNm25GV6sW67ZJpx7QV-_s3pd-9R3OVm8T91hvHz8g_Rs3StJOmx2voKnQRqSpVY3Me1qVcRtvcStevITQ23WXw4QcXSmLUjRCDymElkUC8m_5nPSKVPGXEnXLQYpNt_izcuuPbvcRcH2l0bpakwapDFMJZa60w1H2B6KsP7L28AuABkzNho_ICmGbQXXQfREzdRWIWtG1T90XL47fvrTntOnRQClNv3m00]--></g></svg>