<svg width="586" height="70" viewBox="0 0 586 70" fill="none" xmlns="http://www.w3.org/2000/svg">
<path d="M0.16 53.916V43.332H4.48V53.916H0.16ZM7 53.916V43.332H11.32V53.916H7ZM10.5944 69L22.1864 43.26H31.0784L42.6704 69H36.4064L33.9584 63.564H19.3064L16.8584 69H10.5944ZM21.3944 58.884H31.8704L26.8664 47.76H26.3984L21.3944 58.884ZM67.2491 69C65.1611 69 63.6251 68.484 62.6411 67.452C61.6571 66.396 61.1651 65.016 61.1651 63.312V54.6H55.8011V50.46H61.1651V44.772H66.3851V50.46H74.0891V54.6H66.3851V62.664C66.3851 64.128 67.1051 64.86 68.5451 64.86H75.0971V69H67.2491ZM87.2848 69.18C84.0688 69.18 81.5608 68.388 79.7608 66.804C77.9608 65.196 77.0608 62.844 77.0608 59.748C77.0608 56.628 77.9608 54.276 79.7608 52.692C81.5608 51.084 84.0688 50.28 87.2848 50.28H93.9448C97.1608 50.28 99.6688 51.084 101.469 52.692C103.269 54.276 104.169 56.628 104.169 59.748C104.169 62.844 103.269 65.196 101.469 66.804C99.6688 68.388 97.1608 69.18 93.9448 69.18H87.2848ZM87.2848 65.04H93.9448C95.5048 65.04 96.6928 64.608 97.5088 63.744C98.3488 62.88 98.7688 61.548 98.7688 59.748C98.7688 57.924 98.3488 56.58 97.5088 55.716C96.6928 54.852 95.5048 54.42 93.9448 54.42H87.2848C85.7248 54.42 84.5248 54.852 83.6848 55.716C82.8688 56.58 82.4608 57.924 82.4608 59.748C82.4608 61.548 82.8688 62.88 83.6848 63.744C84.5248 64.608 85.7248 65.04 87.2848 65.04ZM113.322 69C111.21 69 109.662 68.472 108.678 67.416C107.718 66.36 107.238 64.992 107.238 63.312V50.46H112.458V62.7C112.458 64.14 113.178 64.86 114.618 64.86H122.106C123.546 64.86 124.266 64.14 124.266 62.7V50.46H129.486V63.312C129.486 64.992 128.994 66.36 128.01 67.416C127.05 68.472 125.514 69 123.402 69H113.322ZM142.761 69.18C139.545 69.18 137.037 68.388 135.237 66.804C133.437 65.196 132.537 62.844 132.537 59.748C132.537 56.628 133.437 54.276 135.237 52.692C137.037 51.084 139.545 50.28 142.761 50.28H154.821V54.42H142.761C141.201 54.42 140.001 54.852 139.161 55.716C138.345 56.58 137.937 57.924 137.937 59.748C137.937 61.548 138.345 62.88 139.161 63.744C140.001 64.608 141.201 65.04 142.761 65.04H155.181V69.18H142.761ZM157.867 69V43.26H163.087V50.46H174.031C176.143 50.46 177.679 50.988 178.639 52.044C179.623 53.076 180.115 54.444 180.115 56.148V69H174.895V56.76C174.895 55.32 174.175 54.6 172.735 54.6H163.087V69H157.867ZM308.702 69.48C300.126 69.48 293.438 67.368 288.638 63.144C283.838 58.856 281.438 52.584 281.438 44.328C281.438 36.008 283.838 29.736 288.638 25.512C293.438 21.224 300.126 19.08 308.702 19.08H340.862V30.12H308.702C304.542 30.12 301.342 31.272 299.102 33.576C296.926 35.88 295.838 39.464 295.838 44.328C295.838 49.128 296.926 52.68 299.102 54.984C301.342 57.288 304.542 58.44 308.702 58.44H341.822V69.48H308.702ZM374.327 69.48C365.751 69.48 359.063 67.368 354.263 63.144C349.463 58.856 347.063 52.584 347.063 44.328C347.063 36.008 349.463 29.736 354.263 25.512C359.063 21.224 365.751 19.08 374.327 19.08H392.087C400.663 19.08 407.351 21.224 412.151 25.512C416.951 29.736 419.351 36.008 419.351 44.328C419.351 52.584 416.951 58.856 412.151 63.144C407.351 67.368 400.663 69.48 392.087 69.48H374.327ZM374.327 58.44H392.087C396.247 58.44 399.415 57.288 401.591 54.984C403.831 52.68 404.951 49.128 404.951 44.328C404.951 39.464 403.831 35.88 401.591 33.576C399.415 31.272 396.247 30.12 392.087 30.12H374.327C370.167 30.12 366.967 31.272 364.727 33.576C362.551 35.88 361.463 39.464 361.463 44.328C361.463 49.128 362.551 52.68 364.727 54.984C366.967 57.288 370.167 58.44 374.327 58.44ZM428.014 69V0.359997H441.934V69H428.014ZM477.827 69.48C469.251 69.48 462.563 67.368 457.763 63.144C452.963 58.856 450.563 52.584 450.563 44.328C450.563 36.008 452.963 29.736 457.763 25.512C462.563 21.224 469.251 19.08 477.827 19.08H495.587C504.163 19.08 510.851 21.224 515.651 25.512C520.451 29.736 522.851 36.008 522.851 44.328C522.851 52.584 520.451 58.856 515.651 63.144C510.851 67.368 504.163 69.48 495.587 69.48H477.827ZM477.827 58.44H495.587C499.747 58.44 502.915 57.288 505.091 54.984C507.331 52.68 508.451 49.128 508.451 44.328C508.451 39.464 507.331 35.88 505.091 33.576C502.915 31.272 499.747 30.12 495.587 30.12H477.827C473.667 30.12 470.467 31.272 468.227 33.576C466.051 35.88 464.963 39.464 464.963 44.328C464.963 49.128 466.051 52.68 468.227 54.984C470.467 57.288 473.667 58.44 477.827 58.44ZM531.514 69V19.56H569.338C574.906 19.56 579.002 20.968 581.626 23.784C584.25 26.536 585.562 30.184 585.562 34.728V45H571.45V36.456C571.45 32.616 569.53 30.696 565.69 30.696H545.626V69H531.514Z" fill="white"/>
<path d="M205.972 69.18C202.756 69.18 200.248 68.388 198.448 66.804C196.648 65.196 195.748 62.844 195.748 59.748C195.748 56.628 196.648 54.276 198.448 52.692C200.248 51.084 202.756 50.28 205.972 50.28H212.632C215.848 50.28 218.356 51.084 220.156 52.692C221.956 54.276 222.856 56.628 222.856 59.748C222.856 62.844 221.956 65.196 220.156 66.804C218.356 68.388 215.848 69.18 212.632 69.18H205.972ZM205.972 65.04H212.632C214.192 65.04 215.38 64.608 216.196 63.744C217.036 62.88 217.456 61.548 217.456 59.748C217.456 57.924 217.036 56.58 216.196 55.716C215.38 54.852 214.192 54.42 212.632 54.42H205.972C204.412 54.42 203.212 54.852 202.372 55.716C201.556 56.58 201.148 57.924 201.148 59.748C201.148 61.548 201.556 62.88 202.372 63.744C203.212 64.608 204.412 65.04 205.972 65.04ZM230.209 69V54.6H224.845V50.46H230.209V49.02C230.209 47.316 230.701 45.948 231.685 44.916C232.669 43.86 234.205 43.332 236.293 43.332H244.141V47.472H237.589C236.149 47.472 235.429 48.204 235.429 49.668V50.46H243.133V54.6H235.429V69H230.209Z" fill="#CAFF01"/>
</svg>
