<svg width="166" height="105" viewBox="0 0 166 105" fill="none" xmlns="http://www.w3.org/2000/svg">
<mask id="path-1-outside-1_411_2747" maskUnits="userSpaceOnUse" x="-1" y="-1" width="168" height="107" fill="black">
<rect fill="white" x="-1" y="-1" width="168" height="107"/>
<path d="M0.546875 104.547V48.1016L20.4688 0.25H61.6797L48.7891 46.3438H73.5938V104.547H0.546875ZM92.1484 104.547V48.1016L112.07 0.25H153.281L140.391 46.3438H165.195V104.547H92.1484Z"/>
</mask>
<path d="M0.546875 104.547V48.1016L20.4688 0.25H61.6797L48.7891 46.3438H73.5938V104.547H0.546875ZM92.1484 104.547V48.1016L112.07 0.25H153.281L140.391 46.3438H165.195V104.547H92.1484Z" fill="#545454"/>
<path d="M0.546875 104.547H-0.453125V105.547H0.546875V104.547ZM0.546875 48.1016L-0.376313 47.7172L-0.453125 47.9017V48.1016H0.546875ZM20.4688 0.25V-0.75H19.8019L19.5456 -0.134346L20.4688 0.25ZM61.6797 0.25L62.6427 0.519325L62.9977 -0.75H61.6797V0.25ZM48.7891 46.3438L47.826 46.0744L47.471 47.3438H48.7891V46.3438ZM73.5938 46.3438H74.5938V45.3438H73.5938V46.3438ZM73.5938 104.547V105.547H74.5938V104.547H73.5938ZM92.1484 104.547H91.1484V105.547H92.1484V104.547ZM92.1484 48.1016L91.2253 47.7172L91.1484 47.9017V48.1016H92.1484ZM112.07 0.25V-0.75H111.403L111.147 -0.134346L112.07 0.25ZM153.281 0.25L154.244 0.519325L154.599 -0.75H153.281V0.25ZM140.391 46.3438L139.428 46.0744L139.073 47.3438H140.391V46.3438ZM165.195 46.3438H166.195V45.3438H165.195V46.3438ZM165.195 104.547V105.547H166.195V104.547H165.195ZM1.54688 104.547V48.1016H-0.453125V104.547H1.54688ZM1.47006 48.4859L21.3919 0.634346L19.5456 -0.134346L-0.376313 47.7172L1.47006 48.4859ZM20.4688 1.25H61.6797V-0.75H20.4688V1.25ZM60.7166 -0.0193253L47.826 46.0744L49.7521 46.6131L62.6427 0.519325L60.7166 -0.0193253ZM48.7891 47.3438H73.5938V45.3438H48.7891V47.3438ZM72.5938 46.3438V104.547H74.5938V46.3438H72.5938ZM73.5938 103.547H0.546875V105.547H73.5938V103.547ZM93.1484 104.547V48.1016H91.1484V104.547H93.1484ZM93.0716 48.4859L112.993 0.634346L111.147 -0.134346L91.2253 47.7172L93.0716 48.4859ZM112.07 1.25H153.281V-0.75H112.07V1.25ZM152.318 -0.0193253L139.428 46.0744L141.354 46.6131L154.244 0.519325L152.318 -0.0193253ZM140.391 47.3438H165.195V45.3438H140.391V47.3438ZM164.195 46.3438V104.547H166.195V46.3438H164.195ZM165.195 103.547H92.1484V105.547H165.195V103.547Z" fill="white" mask="url(#path-1-outside-1_411_2747)"/>
</svg>
