<svg width="34" height="34" viewBox="0 0 34 34" fill="none" xmlns="http://www.w3.org/2000/svg">
<circle cx="17" cy="17" r="17" fill="#4D4D4F"/>
<path d="M10.3077 12.2782V21.8647H24.6923V12.2782H10.3077ZM10.3077 11H24.6923C25.0391 11 25.3717 11.1347 25.617 11.3744C25.8622 11.6141 26 11.9392 26 12.2782V21.8647C26 22.2037 25.8622 22.5288 25.617 22.7685C25.3717 23.0082 25.0391 23.1429 24.6923 23.1429H10.3077C9.96087 23.1429 9.62825 23.0082 9.38301 22.7685C9.13777 22.5288 9 22.2037 9 21.8647V12.2782C9 11.9392 9.13777 11.6141 9.38301 11.3744C9.62825 11.1347 9.96087 11 10.3077 11Z" fill="white"/>
<path d="M22.52 12.2919H12.4792L17.4996 16.9933L22.52 12.2919ZM10.4188 12.1208C10.3246 12.0326 10.2589 11.9176 10.2301 11.7909C10.2013 11.6642 10.2109 11.5316 10.2577 11.4105C10.3044 11.2895 10.386 11.1855 10.4919 11.1122C10.5978 11.039 10.723 10.9999 10.8512 11H24.148C24.2762 10.9999 24.4014 11.039 24.5073 11.1122C24.6132 11.1855 24.6948 11.2895 24.7415 11.4105C24.7882 11.5316 24.7978 11.6642 24.7691 11.7909C24.7403 11.9176 24.6745 12.0326 24.5803 12.1208L18.3636 17.9428C18.1283 18.1633 17.8198 18.2857 17.4996 18.2857C17.1793 18.2857 16.8708 18.1633 16.6356 17.9428L10.4195 12.1208H10.4188Z" fill="white"/>
</svg>
