<svg width="682" height="102" viewBox="0 0 682 102" fill="none" xmlns="http://www.w3.org/2000/svg">
<path d="M23.215 46V36.848H33.455V46H23.215ZM41.2775 46V36.848H51.5175V46H41.2775ZM59.34 46V36.848H69.58V46H59.34ZM77.4025 46V36.848H87.6425V46H77.4025ZM94.057 46.32V38.96H125.417C127.209 38.96 128.105 37.9573 128.105 35.952C128.105 33.9893 127.209 33.008 125.417 33.008H105.129C101.332 33.008 98.4517 32.1547 96.489 30.448C94.5263 28.6987 93.545 26.2027 93.545 22.96C93.545 19.6747 94.5263 17.1573 96.489 15.408C98.4943 13.616 101.374 12.72 105.129 12.72H134.313V20.08H105.577C103.742 20.08 102.825 20.976 102.825 22.768C102.825 23.664 103.081 24.368 103.593 24.88C104.105 25.392 104.766 25.648 105.577 25.648H127.081C130.409 25.648 132.948 26.5227 134.697 28.272C136.489 29.9787 137.385 32.4747 137.385 35.76C137.385 39.088 136.489 41.6907 134.697 43.568C132.905 45.4027 130.366 46.32 127.081 46.32H94.057ZM142.833 60.4V13.04H166.513C172.23 13.04 176.689 14.448 179.889 17.264C183.089 20.08 184.689 24.1547 184.689 29.488C184.689 34.864 183.089 38.96 179.889 41.776C176.689 44.592 172.23 46 166.513 46H152.113V60.4H142.833ZM166.513 20.4H152.113V38.64H166.513C169.286 38.64 171.398 37.8933 172.849 36.4C174.342 34.864 175.089 32.56 175.089 29.488C175.089 26.4587 174.342 24.1973 172.849 22.704C171.398 21.168 169.286 20.4 166.513 20.4ZM207.354 46.32C201.636 46.32 197.178 44.912 193.978 42.096C190.778 39.2373 189.178 35.056 189.178 29.552C189.178 24.0053 190.778 19.824 193.978 17.008C197.178 14.1493 201.636 12.72 207.354 12.72H223.354C227.108 12.72 229.967 13.616 231.93 15.408C233.935 17.1573 234.938 19.6747 234.938 22.96C234.938 29.6587 231.076 33.008 223.354 33.008H199.162C200.058 36.976 202.788 38.96 207.354 38.96H233.274V46.32H207.354ZM207.354 20.08C202.959 20.08 200.25 21.936 199.226 25.648H222.906C223.759 25.648 224.42 25.392 224.89 24.88C225.402 24.368 225.658 23.664 225.658 22.768C225.658 20.976 224.74 20.08 222.906 20.08H207.354ZM240.708 46V0.239998H249.988V46H240.708ZM257.02 46V0.239998H266.3V46H257.02ZM272.245 46.32V38.96H303.604C305.397 38.96 306.293 37.9573 306.293 35.952C306.293 33.9893 305.397 33.008 303.604 33.008H283.317C279.519 33.008 276.639 32.1547 274.677 30.448C272.714 28.6987 271.733 26.2027 271.733 22.96C271.733 19.6747 272.714 17.1573 274.677 15.408C276.682 13.616 279.562 12.72 283.317 12.72H312.501V20.08H283.765C281.93 20.08 281.013 20.976 281.013 22.768C281.013 23.664 281.269 24.368 281.781 24.88C282.293 25.392 282.954 25.648 283.765 25.648H305.269C308.597 25.648 311.135 26.5227 312.885 28.272C314.677 29.9787 315.573 32.4747 315.573 35.76C315.573 39.088 314.677 41.6907 312.885 43.568C311.093 45.4027 308.554 46.32 305.269 46.32H272.245ZM352.163 46C348.707 46 346.062 45.1253 344.227 43.376C342.392 41.6267 341.475 39.1307 341.475 35.888C341.475 32.688 342.392 30.2133 344.227 28.464C346.062 26.7147 348.707 25.84 352.163 25.84H376.739V24.304C376.739 21.7013 375.459 20.4 372.899 20.4H345.763V13.04H375.331C379.214 13.04 381.966 13.936 383.587 15.728C385.208 17.4773 386.019 19.952 386.019 23.152V46H352.163ZM353.827 38.64H376.739V33.2H353.827C353.016 33.2 352.376 33.456 351.907 33.968C351.48 34.4373 351.267 35.0773 351.267 35.888C351.267 36.6987 351.48 37.36 351.907 37.872C352.376 38.384 353.016 38.64 353.827 38.64ZM415.458 46V0.239998H424.738V13.04H446.882C450.636 13.04 453.495 13.936 455.458 15.728C457.463 17.4773 458.466 19.9947 458.466 23.28C458.466 28.656 455.906 31.856 450.786 32.88L458.594 46H448.162L440.61 33.264H424.738V46H415.458ZM446.434 20.336H424.738V25.968H446.434C447.287 25.968 447.948 25.712 448.418 25.2C448.93 24.688 449.186 23.984 449.186 23.088C449.186 21.2533 448.268 20.336 446.434 20.336ZM464.333 46V13.04H473.613V46H464.333ZM464.269 7.6V0.367996H473.677V7.6H464.269ZM480.645 46V13.04H509.381C513.136 13.04 515.866 13.9787 517.573 15.856C519.322 17.6907 520.197 20.1227 520.197 23.152V46H510.917V24.24C510.917 21.68 509.637 20.4 507.077 20.4H489.925V46H480.645ZM567.471 46H558.191V0.239998H567.471V46ZM565.871 46H543.791C538.074 46 533.615 44.592 530.415 41.776C527.215 38.96 525.615 34.8853 525.615 29.552C525.615 24.176 527.215 20.08 530.415 17.264C533.615 14.448 538.074 13.04 543.791 13.04H565.231V20.4H543.791C541.018 20.4 538.884 21.168 537.391 22.704C535.94 24.1973 535.215 26.48 535.215 29.552C535.215 32.5813 535.94 34.864 537.391 36.4C538.884 37.8933 541.018 38.64 543.791 38.64H565.871V46ZM613.791 46.32C608.074 46.32 603.615 44.912 600.415 42.096C597.215 39.2373 595.615 35.056 595.615 29.552C595.615 24.0053 597.215 19.824 600.415 17.008C603.615 14.1493 608.074 12.72 613.791 12.72H625.631C631.348 12.72 635.807 14.1493 639.007 17.008C642.207 19.824 643.807 24.0053 643.807 29.552C643.807 35.056 642.207 39.2373 639.007 42.096C635.807 44.912 631.348 46.32 625.631 46.32H613.791ZM613.791 38.96H625.631C628.404 38.96 630.516 38.192 631.967 36.656C633.46 35.12 634.207 32.752 634.207 29.552C634.207 26.3093 633.46 23.92 631.967 22.384C630.516 20.848 628.404 20.08 625.631 20.08H613.791C611.018 20.08 608.884 20.848 607.391 22.384C605.94 23.92 605.215 26.3093 605.215 29.552C605.215 32.752 605.94 35.12 607.391 36.656C608.884 38.192 611.018 38.96 613.791 38.96ZM656.879 46V20.4H647.343V13.04H656.879V10.48C656.879 7.45066 657.753 5.01866 659.503 3.184C661.252 1.30666 663.983 0.367996 667.695 0.367996H681.647V7.728H669.999C667.439 7.728 666.159 9.02933 666.159 11.632V13.04H679.854V20.4H666.159V46H656.879Z" fill="white"/>
<path d="M0.52 101V68.04H25.736C29.448 68.04 32.1787 68.9787 33.928 70.856C35.6773 72.6907 36.552 75.1227 36.552 78.152V85H27.144V79.304C27.144 76.744 25.864 75.464 23.304 75.464H9.928V101H0.52ZM59.791 101.32C54.0737 101.32 49.615 99.912 46.415 97.096C43.215 94.2373 41.615 90.056 41.615 84.552C41.615 79.0053 43.215 74.824 46.415 72.008C49.615 69.1493 54.0737 67.72 59.791 67.72H71.631C77.3483 67.72 81.807 69.1493 85.007 72.008C88.207 74.824 89.807 79.0053 89.807 84.552C89.807 90.056 88.207 94.2373 85.007 97.096C81.807 99.912 77.3483 101.32 71.631 101.32H59.791ZM59.791 93.96H71.631C74.4043 93.96 76.5163 93.192 77.967 91.656C79.4603 90.12 80.207 87.752 80.207 84.552C80.207 81.3093 79.4603 78.92 77.967 77.384C76.5163 75.848 74.4043 75.08 71.631 75.08H59.791C57.0177 75.08 54.8843 75.848 53.391 77.384C51.9403 78.92 51.215 81.3093 51.215 84.552C51.215 87.752 51.9403 90.12 53.391 91.656C54.8843 93.192 57.0177 93.96 59.791 93.96ZM95.5825 101V68.04H138.271C142.025 68.04 144.777 68.9787 146.527 70.856C148.276 72.6907 149.151 75.1227 149.151 78.152V101H139.871V79.304C139.871 76.7013 138.548 75.4 135.903 75.4H127.007V101H117.727V75.4H104.863V101H95.5825ZM164.663 101C161.207 101 158.562 100.125 156.727 98.376C154.892 96.6267 153.975 94.1307 153.975 90.888C153.975 87.688 154.892 85.2133 156.727 83.464C158.562 81.7147 161.207 80.84 164.663 80.84H189.239V79.304C189.239 76.7013 187.959 75.4 185.399 75.4H158.263V68.04H187.831C191.714 68.04 194.466 68.936 196.087 70.728C197.708 72.4773 198.519 74.952 198.519 78.152V101H164.663ZM166.327 93.64H189.239V88.2H166.327C165.516 88.2 164.876 88.456 164.407 88.968C163.98 89.4373 163.767 90.0773 163.767 90.888C163.767 91.6987 163.98 92.36 164.407 92.872C164.876 93.384 165.516 93.64 166.327 93.64ZM205.583 101V68.04H234.319C238.073 68.04 240.804 68.9787 242.511 70.856C244.26 72.6907 245.135 75.1227 245.135 78.152V101H235.854V79.24C235.854 76.68 234.575 75.4 232.015 75.4H214.863V101H205.583ZM268.729 101.32C263.011 101.32 258.553 99.912 255.353 97.096C252.153 94.2373 250.553 90.056 250.553 84.552C250.553 79.0053 252.153 74.824 255.353 72.008C258.553 69.1493 263.011 67.72 268.729 67.72H290.169V75.08H268.729C265.955 75.08 263.822 75.848 262.329 77.384C260.878 78.92 260.153 81.3093 260.153 84.552C260.153 87.752 260.878 90.12 262.329 91.656C263.822 93.192 265.955 93.96 268.729 93.96H290.809V101.32H268.729ZM312.479 101.32C306.761 101.32 302.303 99.912 299.103 97.096C295.903 94.2373 294.303 90.056 294.303 84.552C294.303 79.0053 295.903 74.824 299.103 72.008C302.303 69.1493 306.761 67.72 312.479 67.72H328.479C332.233 67.72 335.092 68.616 337.055 70.408C339.06 72.1573 340.063 74.6747 340.063 77.96C340.063 84.6587 336.201 88.008 328.479 88.008H304.287C305.183 91.976 307.913 93.96 312.479 93.96H338.399V101.32H312.479ZM312.479 75.08C308.084 75.08 305.375 76.936 304.351 80.648H328.031C328.884 80.648 329.545 80.392 330.015 79.88C330.527 79.368 330.783 78.664 330.783 77.768C330.783 75.976 329.865 75.08 328.031 75.08H312.479Z" fill="#CAFF01"/>
</svg>
