<svg width="74" height="76" viewBox="0 0 74 76" fill="none" xmlns="http://www.w3.org/2000/svg">
<path fill-rule="evenodd" clip-rule="evenodd" d="M7.92857 12.6667H26.4286V3.16667C26.4286 1.41778 27.6118 0 29.0714 0H66.0714C70.4504 0 74 4.25331 74 9.5V66.5C74 71.7468 70.4504 76 66.0714 76H7.92857C3.54975 76 0 71.7468 0 66.5V22.1667C0 16.92 3.54975 12.6667 7.92857 12.6667ZM44.9286 12.6667H31.7143V6.33333H44.9286V12.6667ZM10.5714 25.3333C10.5714 23.5844 11.7547 22.1667 13.2143 22.1667H23.7857C25.2454 22.1667 26.4286 23.5844 26.4286 25.3333V38C26.4286 39.749 25.2454 41.1667 23.7857 41.1667H13.2143C11.7547 41.1667 10.5714 39.749 10.5714 38V25.3333ZM10.5714 50.6667C10.5714 48.9177 11.7547 47.5 13.2143 47.5H23.7857C25.2454 47.5 26.4286 48.9177 26.4286 50.6667V63.3333C26.4286 65.0823 25.2454 66.5 23.7857 66.5H13.2143C11.7547 66.5 10.5714 65.0823 10.5714 63.3333V50.6667ZM31.7143 22.1667C30.2546 22.1667 29.0714 23.5844 29.0714 25.3333V38C29.0714 39.749 30.2546 41.1667 31.7143 41.1667H42.2857C43.7454 41.1667 44.9286 39.749 44.9286 38V25.3333C44.9286 23.5844 43.7454 22.1667 42.2857 22.1667H31.7143ZM29.0714 50.6667C29.0714 48.9177 30.2546 47.5 31.7143 47.5H42.2857C43.7454 47.5 44.9286 48.9177 44.9286 50.6667V63.3333C44.9286 65.0823 43.7454 66.5 42.2857 66.5H31.7143C30.2546 66.5 29.0714 65.0823 29.0714 63.3333V50.6667ZM50.2143 22.1667C48.7546 22.1667 47.5714 23.5844 47.5714 25.3333V38C47.5714 39.749 48.7546 41.1667 50.2143 41.1667H60.7857C62.2454 41.1667 63.4286 39.749 63.4286 38V25.3333C63.4286 23.5844 62.2454 22.1667 60.7857 22.1667H50.2143ZM47.5714 50.6667C47.5714 48.9177 48.7546 47.5 50.2143 47.5H60.7857C62.2454 47.5 63.4286 48.9177 63.4286 50.6667V63.3333C63.4286 65.0823 62.2454 66.5 60.7857 66.5H50.2143C48.7546 66.5 47.5714 65.0823 47.5714 63.3333V50.6667Z" fill="#CAFF01"/>
</svg>
