<svg width="34" height="34" viewBox="0 0 34 34" fill="none" xmlns="http://www.w3.org/2000/svg">
<circle cx="17" cy="17" r="17" fill="#4D4D4F"/>
<path d="M20.185 15.2359C20.3921 15.2359 20.5964 15.2505 20.7986 15.2717C20.2476 12.8211 17.5032 11 14.371 11C10.8689 11 8 13.2794 8 16.1735C8 17.8438 8.95467 19.2157 10.5494 20.2797L9.91227 22.1101L12.1392 21.0435C12.9366 21.1939 13.5756 21.3489 14.371 21.3489C14.5708 21.3489 14.7687 21.3396 14.9656 21.3245C14.841 20.9181 14.7687 20.4919 14.7687 20.0502C14.7687 17.3927 17.1588 15.2359 20.185 15.2359ZM16.7601 13.5863C17.2399 13.5863 17.5574 13.888 17.5574 14.3458C17.5574 14.8017 17.2399 15.1072 16.7601 15.1072C16.2823 15.1072 15.8035 14.8017 15.8035 14.3458C15.8035 13.888 16.2823 13.5863 16.7601 13.5863ZM12.3014 15.1071C11.8236 15.1071 11.3418 14.8016 11.3418 14.3458C11.3418 13.888 11.8236 13.5863 12.3014 13.5863C12.7787 13.5863 13.0968 13.888 13.0968 14.3458C13.0968 14.8017 12.7787 15.1071 12.3014 15.1071ZM26 19.9771C26 17.545 23.4511 15.5626 20.5886 15.5626C17.5574 15.5626 15.1703 17.545 15.1703 19.9771C15.1703 22.4128 17.5574 24.3909 20.5886 24.3909C21.2227 24.3909 21.8628 24.2391 22.4998 24.0864L24.2475 25L23.7682 23.4801C25.0473 22.5636 26 21.3489 26 19.9771ZM18.8316 19.2157C18.5146 19.2157 18.1946 18.9145 18.1946 18.6071C18.1946 18.304 18.5146 17.9989 18.8316 17.9989C19.3134 17.9989 19.629 18.304 19.629 18.6071C19.629 18.9145 19.3134 19.2157 18.8316 19.2157ZM22.3357 19.2157C22.0211 19.2157 21.703 18.9145 21.703 18.6071C21.703 18.304 22.0211 17.9989 22.3357 17.9989C22.8135 17.9989 23.133 18.304 23.133 18.6071C23.133 18.9145 22.8135 19.2157 22.3357 19.2157Z" fill="white"/>
</svg>
