<svg width="34" height="34" viewBox="0 0 34 34" fill="none" xmlns="http://www.w3.org/2000/svg">
<circle cx="17" cy="17" r="17" fill="#4D4D4F"/>
<path d="M21.6949 17.5188C21.9703 17.7293 22.1641 17.9825 22.2763 18.2782C22.3885 18.5739 22.4344 18.8822 22.414 19.203C22.3936 19.5238 22.3222 19.8446 22.1998 20.1654C22.0774 20.4862 21.9193 20.7769 21.7255 21.0376C21.3786 21.5088 20.9859 21.9098 20.5473 22.2406C20.1086 22.5714 19.6547 22.8471 19.1854 23.0677C18.7162 23.2882 18.2444 23.4612 17.77 23.5865C17.2957 23.7118 16.8494 23.8045 16.4311 23.8647C16.0129 23.9248 15.638 23.9624 15.3065 23.9774C14.9749 23.9925 14.7174 24 14.5338 24C14.3501 24 14.1053 23.9875 13.7993 23.9624C13.4932 23.9373 13.1541 23.8872 12.7817 23.812C12.4094 23.7368 12.0192 23.6316 11.6112 23.4962C11.2031 23.3609 10.8053 23.183 10.4176 22.9624C10.03 22.7419 9.66022 22.4712 9.30828 22.1504C8.95635 21.8296 8.65797 21.4436 8.41314 20.9925C8.24993 20.7018 8.14026 20.391 8.08416 20.0602C8.02805 19.7293 8 19.3083 8 18.797C8 18.5764 8.03825 18.3258 8.11476 18.0451C8.19127 17.7644 8.32643 17.4536 8.52025 17.1128C8.71407 16.7719 8.9793 16.401 9.31593 16C9.65257 15.599 10.081 15.1579 10.6013 14.6767C11.1113 14.2055 11.6392 13.787 12.185 13.4211C12.7307 13.0551 13.3147 12.7719 13.937 12.5714C14.2226 12.4712 14.5389 12.416 14.8857 12.406C15.2325 12.396 15.5182 12.4511 15.7426 12.5714C15.8446 12.6817 15.9415 12.7945 16.0333 12.9098C16.1251 13.0251 16.1863 13.1679 16.2169 13.3383C16.2475 13.4787 16.2501 13.614 16.2246 13.7444C16.1991 13.8747 16.171 14.005 16.1404 14.1353C16.1098 14.2657 16.0843 14.391 16.0639 14.5113C16.0435 14.6316 16.0537 14.7419 16.0945 14.8421C16.2679 14.8622 16.4362 14.8546 16.5995 14.8195C16.7627 14.7845 16.9208 14.7393 17.0738 14.6842C17.2268 14.6291 17.3824 14.5714 17.5405 14.5113C17.6986 14.4511 17.8644 14.406 18.0378 14.3759C18.3132 14.3258 18.5861 14.3033 18.8564 14.3083C19.1268 14.3133 19.3716 14.3509 19.5909 14.4211C19.8102 14.4912 19.9913 14.599 20.1341 14.7444C20.2769 14.8897 20.3636 15.0777 20.3942 15.3083C20.4146 15.4486 20.4044 15.5789 20.3636 15.6992C20.3228 15.8195 20.2795 15.9323 20.2336 16.0376C20.1877 16.1429 20.152 16.2506 20.1265 16.3609C20.101 16.4712 20.1086 16.5865 20.1494 16.7068C20.18 16.7769 20.254 16.8421 20.3713 16.9023C20.4886 16.9624 20.6238 17.0226 20.7768 17.0827C20.9298 17.1429 21.0905 17.208 21.2588 17.2782C21.4271 17.3484 21.5725 17.4286 21.6949 17.5188ZM17.8389 22.1955C18.1041 22.0351 18.3719 21.8145 18.6422 21.5338C18.9125 21.2531 19.1319 20.9398 19.3002 20.594C19.4685 20.2481 19.5629 19.8772 19.5833 19.4812C19.6037 19.0852 19.5017 18.6867 19.2772 18.2857C19.0834 17.9549 18.8462 17.6742 18.5657 17.4436C18.2852 17.213 17.9715 17.0301 17.6247 16.8947C17.2778 16.7594 16.908 16.6617 16.5153 16.6015C16.1226 16.5414 15.7222 16.5113 15.3141 16.5113C14.5287 16.5113 13.8324 16.5915 13.2255 16.7519C12.6185 16.9123 12.0932 17.1228 11.6494 17.3835C11.2057 17.6441 10.8461 17.9398 10.5707 18.2707C10.2952 18.6015 10.1014 18.9373 9.9892 19.2782C9.87699 19.609 9.84383 19.9373 9.88974 20.2632C9.93564 20.589 10.0402 20.8972 10.2034 21.188C10.3666 21.4787 10.5783 21.7393 10.8384 21.9699C11.0986 22.2005 11.3867 22.386 11.703 22.5263C12.2844 22.7769 12.8786 22.9348 13.4856 23C14.0926 23.0652 14.6715 23.0677 15.2223 23.0075C15.7732 22.9474 16.2756 22.8421 16.7295 22.6917C17.1835 22.5414 17.5533 22.3759 17.8389 22.1955ZM15.8344 17.4436C16.0384 17.5238 16.2322 17.614 16.4158 17.7143C16.5995 17.8145 16.7627 17.9499 16.9055 18.1203C17.0075 18.2406 17.0968 18.391 17.1733 18.5714C17.2498 18.7519 17.3033 18.9449 17.3339 19.1504C17.3645 19.3559 17.3722 19.5639 17.3569 19.7744C17.3416 19.985 17.2931 20.1754 17.2115 20.3459C17.1299 20.5263 17.0305 20.7093 16.9131 20.8947C16.7958 21.0802 16.653 21.2531 16.4847 21.4135C16.3164 21.5739 16.1149 21.7168 15.8803 21.8421C15.6457 21.9674 15.36 22.0602 15.0234 22.1203C14.4113 22.2306 13.8248 22.1754 13.2637 21.9549C12.7027 21.7343 12.264 21.3684 11.9478 20.8571C11.8254 20.4662 11.7591 20.1203 11.7489 19.8195C11.7387 19.5188 11.8203 19.193 11.9937 18.8421C12.1263 18.5714 12.3278 18.3183 12.5981 18.0827C12.8684 17.8471 13.1796 17.6566 13.5315 17.5113C13.8834 17.3659 14.2583 17.2807 14.6562 17.2556C15.054 17.2306 15.4467 17.2932 15.8344 17.4436ZM13.4014 21.1429C13.7789 21.1729 14.0671 21.0827 14.266 20.8722C14.4649 20.6617 14.572 20.4261 14.5873 20.1654C14.6026 19.9048 14.5261 19.6717 14.3578 19.4662C14.1895 19.2607 13.9268 19.1779 13.5698 19.218C13.2943 19.2481 13.0801 19.3634 12.9271 19.5639C12.7741 19.7644 12.6874 19.9774 12.667 20.203C12.6466 20.4286 12.695 20.6366 12.8123 20.8271C12.9296 21.0175 13.126 21.1228 13.4014 21.1429ZM19.6598 10C20.4044 10 21.1007 10.0977 21.7484 10.2932C22.3962 10.4887 22.9623 10.7719 23.4469 11.1429C23.9314 11.5138 24.3114 11.9649 24.5869 12.4962C24.8623 13.0276 25 13.6291 25 14.3008C25 14.6316 24.9184 14.8797 24.7552 15.0451C24.592 15.2105 24.416 15.2957 24.2273 15.3008C24.0386 15.3058 23.8626 15.2356 23.6994 15.0902C23.5362 14.9449 23.4545 14.7218 23.4545 14.4211C23.4545 14.0201 23.3423 13.6391 23.1179 13.2782C22.8935 12.9173 22.5977 12.6015 22.2304 12.3308C21.8632 12.0602 21.4424 11.8471 20.968 11.6917C20.4937 11.5363 20.0117 11.4586 19.5221 11.4586C19.2058 11.4586 18.9712 11.3835 18.8182 11.2331C18.6652 11.0827 18.5938 10.9148 18.604 10.7293C18.6142 10.5439 18.7085 10.3759 18.887 10.2256C19.0656 10.0752 19.3231 10 19.6598 10ZM19.6598 12.406C20.6085 12.406 21.3276 12.6441 21.8173 13.1203C22.3069 13.5965 22.5518 14.3158 22.5518 15.2782C22.5518 15.5789 22.5008 15.792 22.3987 15.9173C22.2967 16.0426 22.1845 16.0977 22.0621 16.0827C21.9397 16.0677 21.8275 15.995 21.7255 15.8647C21.6235 15.7343 21.5725 15.5589 21.5725 15.3383C21.5725 14.7469 21.399 14.2757 21.0522 13.9248C20.7054 13.5739 20.2412 13.3985 19.6598 13.3985C19.4659 13.3985 19.3231 13.3459 19.2313 13.2406C19.1395 13.1353 19.0936 13.0226 19.0936 12.9023C19.0936 12.782 19.1421 12.6692 19.239 12.5639C19.3359 12.4586 19.4761 12.406 19.6598 12.406Z" fill="white"/>
</svg>
