<svg width="15" height="15" viewBox="0 0 15 15" fill="none" xmlns="http://www.w3.org/2000/svg">
<g clip-path="url(#clip0_411_1276)">
<path d="M8.57143 8.38714L11.2886 5.67107C11.4906 5.4759 11.7613 5.36791 12.0422 5.37035C12.3231 5.37279 12.5919 5.48547 12.7905 5.68412C12.9892 5.88277 13.1019 6.1515 13.1043 6.43243C13.1067 6.71335 12.9987 6.984 12.8036 7.18607L8.2575 11.7321C8.15823 11.832 8.0402 11.9112 7.9102 11.9653C7.7802 12.0193 7.64079 12.0472 7.5 12.0472C7.35921 12.0472 7.2198 12.0193 7.0898 11.9653C6.9598 11.9112 6.84177 11.832 6.7425 11.7321L2.19643 7.18607C2.00126 6.984 1.89327 6.71335 1.89571 6.43243C1.89815 6.1515 2.01083 5.88277 2.20948 5.68412C2.40813 5.48547 2.67686 5.37279 2.95778 5.37035C3.23871 5.36791 3.50935 5.4759 3.71143 5.67107L6.42857 8.38714V1.07143C6.42857 0.787268 6.54145 0.514746 6.74239 0.313814C6.94332 0.112882 7.21584 0 7.5 0C7.78416 0 8.05668 0.112882 8.25761 0.313814C8.45855 0.514746 8.57143 0.787268 8.57143 1.07143V8.38714ZM1.07143 12.8571H13.9286C14.2127 12.8571 14.4853 12.97 14.6862 13.171C14.8871 13.3719 15 13.6444 15 13.9286C15 14.2127 14.8871 14.4853 14.6862 14.6862C14.4853 14.8871 14.2127 15 13.9286 15H1.07143C0.787268 15 0.514746 14.8871 0.313814 14.6862C0.112882 14.4853 0 14.2127 0 13.9286C0 13.6444 0.112882 13.3719 0.313814 13.171C0.514746 12.97 0.787268 12.8571 1.07143 12.8571Z" fill="#E0E0E0"/>
</g>
<defs>
<clipPath id="clip0_411_1276">
<rect width="15" height="15" fill="white"/>
</clipPath>
</defs>
</svg>
