<svg width="85" height="105" viewBox="0 0 85 105" fill="none" xmlns="http://www.w3.org/2000/svg">
<path d="M43.1956 28C40.6456 31.6018 37.4517 36.8327 37.4517 38.9964C37.4517 42.1273 40.0274 44.6727 43.1956 44.6727C46.3638 44.6727 48.9395 42.1273 48.9395 38.9964C48.9395 36.8327 45.7456 31.6018 43.1956 28Z" fill="#CAFF01"/>
<path d="M29.1702 12.9561C27.6376 12.9561 26.1952 13.5415 25.1134 14.6106C22.8854 16.8251 22.8854 20.4142 25.1134 22.6161C26.1952 23.6851 27.6376 24.2706 29.1702 24.2706C30.7028 24.2706 32.1323 23.6851 33.2142 22.6161C34.296 21.547 34.8884 20.1215 34.8884 18.6197C34.8884 17.1051 34.296 15.6797 33.2142 14.6106C32.1323 13.5415 30.7028 12.9561 29.1702 12.9561ZM29.1702 16.8633C28.1914 16.8633 27.393 17.6524 27.393 18.6197C27.393 19.3197 26.8134 19.8924 26.1051 19.8924C25.3967 19.8924 24.8172 19.3197 24.8172 18.6197C24.8172 16.2397 26.7748 14.3179 29.1702 14.3179C29.8786 14.3179 30.4581 14.8906 30.4581 15.5906C30.4581 16.2906 29.8786 16.8633 29.1702 16.8633Z" fill="#CAFF01"/>
<path d="M19.0218 32.416C17.4892 32.416 16.0468 33.0015 14.965 34.0706C12.7369 36.2851 12.7369 39.8742 14.965 42.076C17.2059 44.2778 20.8377 44.2778 23.0657 42.076C24.1475 41.0069 24.74 39.5815 24.74 38.0797C24.74 36.5651 24.1475 35.1397 23.0657 34.0706C21.9968 33.0015 20.5544 32.416 19.0218 32.416ZM19.0218 36.3106C18.043 36.3106 17.2445 37.0997 17.2445 38.0669C17.2445 38.7669 16.665 39.3397 15.9566 39.3397C15.2483 39.3397 14.6688 38.7669 14.6688 38.0669C14.6688 35.6869 16.6263 33.7651 19.0218 33.7651C19.7301 33.7651 20.3097 34.3378 20.3097 35.0378C20.3097 35.7506 19.743 36.3106 19.0218 36.3106Z" fill="#CAFF01"/>
<path d="M59.8862 14.6106C58.8044 13.5415 57.362 12.9561 55.8294 12.9561C54.2968 12.9561 52.8544 13.5415 51.7726 14.6106C49.5446 16.8251 49.5446 20.4142 51.7726 22.6161C52.8544 23.6851 54.2968 24.2706 55.8294 24.2706C57.362 24.2706 58.7915 23.6851 59.8733 22.6161C60.9552 21.547 61.5476 20.1215 61.5476 18.6197C61.5733 17.1051 60.968 15.6797 59.8862 14.6106ZM55.8423 16.8633C54.8635 16.8633 54.065 17.6524 54.065 18.6197C54.065 19.3197 53.4855 19.8924 52.7771 19.8924C52.0688 19.8924 51.4893 19.3197 51.4893 18.6197C51.4893 16.2397 53.4468 14.3179 55.8423 14.3179C56.5506 14.3179 57.1302 14.8906 57.1302 15.5906C57.1302 16.2906 56.5506 16.8633 55.8423 16.8633Z" fill="#CAFF01"/>
<path d="M47.2781 74.2003L45.3205 46.9385C44.638 47.1167 43.9296 47.2185 43.1956 47.2185C42.4615 47.2185 41.7531 47.1167 41.0706 46.9385L39.1001 74.2003H47.2781Z" fill="#CAFF01"/>
<path d="M38.9199 76.7451L38.8169 78.0942C38.7267 79.3033 39.1389 80.4615 39.976 81.3524C40.8131 82.2433 41.9464 82.7269 43.1828 82.7269C44.4063 82.7269 45.5525 82.2433 46.3896 81.3524C47.2267 80.4615 47.6388 79.3033 47.5487 78.0942L47.4457 76.7451H38.9199Z" fill="#CAFF01"/>
<path d="M65.9778 32.416C64.4453 32.416 63.0028 33.0015 61.921 34.0706C59.693 36.2724 59.693 39.8742 61.921 42.076C63.0028 43.1451 64.4453 43.7306 65.9778 43.7306C67.5104 43.7306 68.94 43.1451 70.0218 42.076C71.1036 41.0069 71.696 39.5815 71.696 38.0797C71.696 36.5651 71.1036 35.1397 70.0218 34.0706C68.94 33.0015 67.5104 32.416 65.9778 32.416ZM65.9778 36.3106C64.9991 36.3106 64.2006 37.0997 64.2006 38.0669C64.2006 38.7669 63.621 39.3397 62.9127 39.3397C62.2044 39.3397 61.6248 38.7669 61.6248 38.0669C61.6248 35.6869 63.5824 33.7651 65.9778 33.7651C66.6862 33.7651 67.2657 34.3378 67.2657 35.0378C67.2657 35.7506 66.6862 36.3106 65.9778 36.3106Z" fill="#CAFF01"/>
<path d="M46.9046 1.51446C35.7001 0.30537 24.9463 3.69082 16.6266 11.0599C8.40992 18.3272 3.69629 28.7508 3.69629 39.6326C3.69629 49.4326 7.43114 58.749 14.2054 65.8763C14.9395 66.6399 15.9698 67.0345 17.013 66.9454C18.0561 66.8563 18.9834 66.2963 19.563 65.4181C23.7614 59.0545 30.4584 54.7399 38.0054 53.5181L38.5592 45.8308C36.3311 44.3545 34.863 41.8472 34.863 38.9963C34.863 34.8599 41.4054 26.0526 42.1523 25.0599C42.6417 24.4108 43.7364 24.4108 44.213 25.0599C44.9728 26.0526 51.5152 34.8726 51.5152 39.009C51.5152 41.8472 50.047 44.3545 47.819 45.8436L48.3857 53.8108C55.3145 55.3126 61.4963 59.5126 65.4114 65.4308C65.991 66.309 66.9311 66.8563 67.9872 66.9581C69.0175 67.0472 70.0478 66.6654 70.769 65.9017C78.4319 57.8454 82.2054 46.8617 81.1107 35.8017C79.3592 17.8945 64.9736 3.48719 46.9046 1.51446ZM24.8948 43.8835C23.272 45.4872 21.147 46.289 19.022 46.289C16.897 46.289 14.772 45.4872 13.1493 43.8835C9.91674 40.6763 9.91674 35.4708 13.1493 32.2763C14.7205 30.7236 16.8069 29.8708 19.022 29.8708C21.2372 29.8708 23.3236 30.7236 24.8948 32.2763C26.466 33.829 27.3289 35.8908 27.3289 38.0799C27.3289 40.269 26.466 42.3308 24.8948 43.8835ZM35.0433 24.4236C33.472 25.9763 31.3857 26.829 29.1705 26.829C26.9554 26.829 24.869 25.9763 23.2978 24.4236C20.0523 21.2163 20.0523 16.0108 23.2978 12.8163C24.869 11.2636 26.9554 10.4108 29.1705 10.4108C31.3857 10.4108 33.472 11.2636 35.0433 12.8163C36.6145 14.369 37.4773 16.4308 37.4773 18.6199C37.4645 20.809 36.6016 22.8708 35.0433 24.4236ZM55.8425 26.829C53.6273 26.829 51.541 25.9763 49.9698 24.4236C46.7372 21.2163 46.7372 16.0108 49.9698 12.8163C51.541 11.2636 53.6273 10.4108 55.8425 10.4108C58.0577 10.4108 60.144 11.2636 61.7152 12.8163C63.2864 14.369 64.1493 16.4308 64.1493 18.6199C64.1493 20.809 63.2864 22.8708 61.7152 24.4236C60.144 25.9763 58.0577 26.829 55.8425 26.829ZM71.8508 43.8835C70.2796 45.4363 68.1933 46.289 65.9781 46.289C63.763 46.289 61.6766 45.4363 60.1054 43.8835C56.8728 40.6763 56.8728 35.4708 60.1054 32.2763C61.6766 30.7236 63.763 29.8708 65.9781 29.8708C68.1933 29.8708 70.2796 30.7236 71.8508 32.2763C73.4221 33.829 74.2849 35.8908 74.2849 38.0799C74.2849 40.269 73.4221 42.3308 71.8508 43.8835Z" fill="#CAFF01"/>
</svg>
