<svg width="23" height="23" viewBox="0 0 23 23" fill="none" xmlns="http://www.w3.org/2000/svg">
<path d="M20.7539 4.3125C20.3092 4.3125 19.9453 4.67637 19.9453 5.12109V6.02627C19.5635 5.43779 19.1187 4.88975 18.6156 4.38437C17.6925 3.46123 16.6166 2.73574 15.4172 2.22812C14.1751 1.70479 12.8589 1.4375 11.5 1.4375C10.1411 1.4375 8.8249 1.70479 7.58281 2.22812C6.3834 2.73574 5.30752 3.46123 4.38437 4.38437C3.46123 5.30752 2.73574 6.3834 2.22812 7.58281C1.70479 8.8249 1.4375 10.1411 1.4375 11.5C1.4375 12.8589 1.70479 14.1751 2.22812 15.4172C2.73574 16.6166 3.46123 17.6925 4.38437 18.6156C5.30752 19.5388 6.3834 20.2643 7.58281 20.7719C8.8249 21.2952 10.1411 21.5625 11.5 21.5625C13.216 21.5625 14.9118 21.1223 16.401 20.2912C17.8452 19.4849 19.0806 18.3236 19.9745 16.9311C20.2059 16.5694 20.1025 16.0888 19.7409 15.8574C19.3793 15.6261 18.8986 15.7294 18.6673 16.091C17.9104 17.2702 16.8659 18.2518 15.644 18.9346C14.3862 19.6376 12.9532 20.0082 11.5022 20.0082C10.3522 20.0082 9.23818 19.7836 8.1915 19.3389C7.17852 18.9099 6.26885 18.2967 5.48721 17.515C4.70332 16.7334 4.08789 15.8237 3.66113 14.8107C3.21865 13.7618 2.9918 12.6478 2.9918 11.5C2.9918 10.35 3.21641 9.23594 3.66113 8.18926C4.09014 7.17627 4.70332 6.2666 5.48496 5.48496C6.2666 4.70332 7.17627 4.08789 8.18926 3.66113C9.23818 3.21865 10.3522 2.9918 11.5 2.9918C12.65 2.9918 13.7641 3.21641 14.8107 3.66113C15.8237 4.09014 16.7334 4.70332 17.515 5.48496C18.2967 6.2666 18.9121 7.17627 19.3389 8.18926C19.6466 8.91924 19.8487 9.67842 19.9453 10.4623V11.5898C19.9453 12.0346 20.3092 12.3984 20.7539 12.3984C21.1986 12.3984 21.5625 12.0346 21.5625 11.5898V5.12109C21.5625 4.67637 21.1986 4.3125 20.7539 4.3125Z" fill="white"/>
<path d="M5.29395 10.2688C5.29395 10.1497 5.404 10.0464 5.55225 10.0307C5.94756 9.98799 5.93633 9.96328 6.10928 9.88242C6.28447 9.80156 6.45068 9.59043 6.55176 9.32539C6.58994 9.22432 6.70449 9.15469 6.83477 9.15469H7.02344C7.1874 9.15469 7.32217 9.2625 7.32217 9.39502V13.6064C7.32217 13.739 7.18965 13.8468 7.02344 13.8468H6.7C6.53603 13.8468 6.40127 13.739 6.40127 13.6064V10.7494C6.40127 10.6169 6.26875 10.5091 6.10254 10.5091H5.59268C5.42871 10.5091 5.29395 10.4013 5.29395 10.2688ZM8.76865 11.0369C8.5957 10.8617 8.50811 10.6326 8.50811 10.3519C8.50811 10.0015 8.63613 9.69824 8.88994 9.44668C9.14375 9.19512 9.50537 9.06934 9.97031 9.06934C10.4218 9.06934 10.7744 9.18838 11.0327 9.42647C11.2888 9.66455 11.4168 9.94307 11.4168 10.2598C11.4168 10.554 11.3427 10.7921 11.1922 10.974C11.1091 11.0773 10.9788 11.1784 10.8036 11.2772C10.999 11.3671 11.154 11.4704 11.2663 11.5872C11.4752 11.8073 11.5808 12.0926 11.5808 12.443C11.5808 12.8585 11.4415 13.2089 11.163 13.4964C10.8845 13.7839 10.4914 13.9299 9.98154 13.9299C9.52334 13.9299 9.13477 13.8063 8.81807 13.557C8.50137 13.3077 8.34189 12.9461 8.34189 12.4722C8.34189 12.1937 8.40928 11.9533 8.54629 11.7489C8.6833 11.5468 8.8832 11.3918 9.15273 11.284C8.98877 11.2144 8.86074 11.1313 8.76865 11.0369ZM10.561 13.0517C10.7115 12.9281 10.7879 12.7439 10.7879 12.5014C10.7879 12.2476 10.7093 12.0544 10.5543 11.9241C10.3993 11.7938 10.1994 11.7265 9.95684 11.7265C9.721 11.7265 9.53008 11.7938 9.38184 11.9286C9.23359 12.0634 9.15947 12.2476 9.15947 12.4856C9.15947 12.69 9.22686 12.8675 9.36387 13.0157C9.49863 13.164 9.70977 13.2381 9.99502 13.2381C10.2196 13.2381 10.4105 13.1752 10.561 13.0517ZM10.4195 10.7135C10.5296 10.6034 10.5857 10.4709 10.5857 10.3204C10.5857 10.1879 10.5318 10.0666 10.4263 9.9543C10.3207 9.84424 10.159 9.78809 9.94336 9.78809C9.72773 9.78809 9.57275 9.84424 9.47842 9.9543C9.38184 10.0644 9.33467 10.1946 9.33467 10.3451C9.33467 10.5136 9.39756 10.6438 9.52109 10.7382C9.64463 10.8325 9.79063 10.8797 9.95908 10.8797C10.1545 10.8797 10.3095 10.8235 10.4195 10.7135ZM15.0195 9.83301C15.2307 10.2216 15.3362 10.7539 15.3362 11.4277C15.3362 12.0679 15.2419 12.5979 15.051 13.018C14.7747 13.6199 14.3232 13.9187 13.6943 13.9187C13.1283 13.9187 12.7083 13.6738 12.432 13.1819C12.2007 12.7709 12.0861 12.2206 12.0861 11.5311C12.0861 10.9965 12.1558 10.536 12.2928 10.152C12.5511 9.4377 13.0205 9.07832 13.6966 9.07832C14.3075 9.08057 14.7478 9.32988 15.0195 9.83301ZM14.2918 12.699C14.44 12.4767 14.5142 12.0634 14.5142 11.4592C14.5142 11.0234 14.4603 10.6641 14.3524 10.3833C14.2446 10.1025 14.0357 9.96104 13.7258 9.96104C13.4405 9.96104 13.2316 10.0958 13.1014 10.3631C12.9688 10.6304 12.9037 11.0234 12.9037 11.5445C12.9037 11.9354 12.9464 12.2498 13.0295 12.4879C13.1575 12.8518 13.3799 13.0314 13.6898 13.0314C13.9437 13.0314 14.1436 12.9214 14.2918 12.699ZM17.6879 9.37031C17.8788 9.56123 17.9731 9.79707 17.9731 10.0733C17.9731 10.3586 17.8743 10.5967 17.6744 10.7854C17.4768 10.974 17.2454 11.0706 16.9826 11.0706C16.6906 11.0706 16.4525 10.9718 16.2661 10.7741C16.0797 10.5765 15.9854 10.3474 15.9854 10.0823C15.9854 9.80156 16.0842 9.56572 16.2796 9.37256C16.475 9.17939 16.7108 9.08281 16.9826 9.08281C17.2634 9.08281 17.497 9.1794 17.6879 9.37031ZM16.6704 10.3855C16.758 10.4731 16.8613 10.5158 16.9826 10.5158C17.0994 10.5158 17.2027 10.4731 17.2881 10.3878C17.3757 10.3024 17.4184 10.1969 17.4184 10.0756C17.4184 9.95654 17.3757 9.85547 17.2903 9.76787C17.205 9.68027 17.1017 9.6376 16.9826 9.6376C16.8636 9.6376 16.758 9.68027 16.6727 9.76562C16.5851 9.85098 16.5424 9.95654 16.5424 10.0778C16.5424 10.1969 16.5851 10.3002 16.6704 10.3855Z" fill="white"/>
</svg>
