<svg width="80" height="100" viewBox="0 0 80 100" fill="none" xmlns="http://www.w3.org/2000/svg">
<path d="M26.48 22.4799C27.04 23.0399 27.84 23.0399 28.48 22.6399C30.72 21.1199 33.2 20.0799 35.92 19.5199C36.64 19.3599 37.2 18.7999 37.2 17.9999V3.59994C37.2 2.63994 36.4 1.91994 35.52 2.07994C28.32 2.95994 21.76 5.75994 16.4 9.99994C15.68 10.5599 15.6 11.6799 16.32 12.3199L26.48 22.4799Z" fill="#CAFF01"/>
<path d="M44.0802 19.6003C46.8002 20.1603 49.2802 21.2003 51.5202 22.7203C52.1602 23.1203 52.9602 23.1203 53.5202 22.5603L63.7602 12.3203C64.4002 11.6803 64.4002 10.5603 63.6802 10.0003C58.3202 5.7603 51.7602 2.9603 44.5602 2.0803C43.6802 2.0003 42.8802 2.7203 42.8802 3.6003V18.0803C42.8002 18.8003 43.3602 19.4403 44.0802 19.6003Z" fill="#CAFF01"/>
<path d="M22.6401 51.5198C21.1201 49.2798 20.0801 46.7998 19.5201 44.0798C19.3601 43.3598 18.7201 42.7998 18.0001 42.7998H3.60011C2.72011 42.7998 1.92011 43.5998 2.08011 44.4798C2.96011 51.6798 5.76011 58.2398 10.0001 63.5998C10.5601 64.3198 11.6801 64.3998 12.3201 63.6798L22.5601 53.4398C23.0401 52.9598 23.0401 52.1598 22.6401 51.5198Z" fill="#CAFF01"/>
<path d="M3.60021 37.2H18.0802C18.8002 37.2 19.4402 36.64 19.6002 35.92C20.1602 33.2 21.2002 30.72 22.7202 28.48C23.1202 27.84 23.1202 27.04 22.5602 26.48L12.2402 16.24C11.6002 15.6 10.4802 15.6 9.92021 16.32C5.68021 21.68 2.88021 28.24 2.00021 35.44C1.92021 36.4 2.64021 37.2 3.60021 37.2Z" fill="#CAFF01"/>
<path d="M76.4001 42.7998H61.9201C61.2001 42.7998 60.5601 43.3598 60.4001 44.0798C59.8401 46.7998 58.8001 49.2798 57.2801 51.5198C56.8801 52.1598 56.8801 52.9598 57.4401 53.5198L67.6801 63.7598C68.3201 64.3998 69.4401 64.3998 70.0001 63.6798C74.2401 58.3198 77.0401 51.7598 77.9201 44.5598C78.0801 43.5998 77.3601 42.7998 76.4001 42.7998Z" fill="#CAFF01"/>
<path d="M35.92 60.3996C33.2 59.8396 30.72 58.7996 28.48 57.2796C27.84 56.8796 27.04 56.8796 26.48 57.4396L16.24 67.7596C15.6 68.3996 15.6 69.5196 16.32 70.0796C21.68 74.3196 28.24 77.1196 35.44 77.9996C36.32 78.0796 37.12 77.3596 37.12 76.4796V61.9196C37.2 61.1996 36.64 60.5596 35.92 60.3996Z" fill="#CAFF01"/>
<path d="M57.3601 28.48C58.8801 30.72 59.9201 33.2 60.4801 35.92C60.6401 36.64 61.2801 37.2 62.0001 37.2H76.4801C77.3601 37.2 78.1602 36.4 78.0002 35.52C77.1201 28.32 74.3201 21.76 70.0801 16.4C69.5201 15.68 68.4001 15.6 67.7601 16.32L57.5202 26.48C56.9602 27.04 56.9601 27.84 57.3601 28.48Z" fill="#CAFF01"/>
<path d="M53.5203 57.5197C52.9603 56.9597 52.1603 56.9597 51.5203 57.3597C49.2803 58.8797 46.8003 59.9197 44.0803 60.4797C43.3603 60.6397 42.8003 61.1997 42.8003 61.9997V76.4797C42.8003 77.4397 43.6003 78.1597 44.4803 77.9997C51.6803 77.1197 58.2403 74.3197 63.6003 70.0797C64.3203 69.5197 64.4003 68.3997 63.6803 67.7597L53.5203 57.5197Z" fill="#CAFF01"/>
<path d="M49.6004 44.0004C49.6004 39.8404 44.2404 30.6404 42.5604 27.8404C42.0004 26.9604 41.0404 26.4004 40.0004 26.4004C38.9604 26.4004 38.0004 26.9604 37.4404 27.8404C35.8404 30.6404 30.4004 39.8404 30.4004 44.0004C30.4004 49.2804 34.7204 53.6004 40.0004 53.6004C45.2804 53.6004 49.6004 49.2804 49.6004 44.0004ZM40.0004 50.0804C36.6404 50.0804 33.9204 47.3604 33.9204 44.0004C33.9204 41.0404 38.5604 32.8004 40.0004 30.3204C41.4404 32.8004 46.0804 41.0404 46.0804 44.0004C46.0804 47.3604 43.3604 50.0804 40.0004 50.0804Z" fill="#CAFF01"/>
<path d="M39.0404 38.48C38.5604 38.16 37.8404 38.32 37.5204 38.8C37.3604 38.96 34.5604 43.6 36.9604 47.2C37.2004 47.52 37.5204 47.68 37.8404 47.68C38.0804 47.68 38.2404 47.6 38.4804 47.52C38.9604 47.2 39.1204 46.48 38.8004 46C37.2004 43.6 39.3604 40.08 39.4404 40C39.6804 39.52 39.5204 38.8 39.0404 38.48Z" fill="#CAFF01"/>
</svg>
