<svg width="70" height="91" viewBox="0 0 70 91" fill="none" xmlns="http://www.w3.org/2000/svg">
<g clip-path="url(#clip0_411_1064)">
<path d="M5 -0.0400391C2.23858 -0.0400391 0 2.19854 0 4.95996V67.7C0 70.4614 2.23858 72.7 5 72.7H65C67.7614 72.7 70 70.4614 70 67.7V4.95996C70 2.19854 67.7614 -0.0400391 65 -0.0400391H5ZM0.998951 71.6531C0.999646 71.651 1 71.6488 1 71.6467V13.4263C1 8.92535 6.48169 6.71609 9.60269 9.95917L31.5015 32.7147C33.4286 34.7171 36.6187 34.7639 38.6036 32.8189L51.4417 20.2394C52.8462 18.8631 52.8403 16.5761 53.097 14.6264C53.2467 13.4902 53.8107 12.4492 54.6808 11.7032C55.551 10.9573 56.6659 10.559 57.8116 10.5847C58.9574 10.6105 60.0534 11.0584 60.8892 11.8427C61.7249 12.6269 62.2416 13.6922 62.3401 14.834C62.4386 15.9758 62.1119 17.1138 61.4227 18.0296C60.7336 18.9453 59.7306 19.5743 58.6061 19.7959C56.6397 20.1833 54.333 20.2065 52.9011 21.6089L39.9206 34.3222C37.9602 36.2423 37.9136 39.3837 39.8163 41.3611L60.8429 63.2131C63.8995 66.3896 61.6483 71.68 57.24 71.68H1.0183C1.00438 71.68 0.994543 71.6663 0.998951 71.6531Z" fill="#CAFF01"/>
<path d="M34.97 36.3496L14.52 56.3496C13.513 55.7436 12.3174 55.5316 11.1634 55.7544C10.0094 55.9772 8.97867 56.619 8.2696 57.5563C7.56053 58.4936 7.22326 59.66 7.32276 60.8311C7.42226 62.0021 7.9515 63.095 8.80854 63.8992C9.66559 64.7034 10.7899 65.1621 11.9649 65.187C13.1399 65.2119 14.2826 64.8012 15.1729 64.034C16.0632 63.2668 16.6383 62.1974 16.7873 61.0316C16.9363 59.8658 16.6487 58.6861 15.98 57.7196L36.37 37.7196L34.97 36.3496Z" fill="#CAFF01"/>
</g>
<defs>
<clipPath id="clip0_411_1064">
<rect width="69.98" height="90.8625" fill="white"/>
</clipPath>
</defs>
</svg>
