<svg width="21" height="17" viewBox="0 0 21 17" fill="none" xmlns="http://www.w3.org/2000/svg">
<path d="M10.4986 0C8.51314 0 6.68144 0.645434 5.20949 1.73361C4.87721 1.97898 4.847 2.45372 5.14359 2.74176C5.388 2.97913 5.77521 3.0058 6.04982 2.80044C7.2856 1.8883 8.82895 1.34421 10.4959 1.34421C14.3405 1.34421 17.5096 4.222 17.8364 7.87324C17.8666 8.22262 17.8309 8.5 17.8309 8.5L16.1008 8.51334L18.2016 12.578C18.3829 12.578 21 8.49733 21 8.49733H19.2479C19.2562 8.0546 19.226 7.8519 19.2177 7.76655C18.8333 3.42187 15.0683 0.00266707 10.4986 0ZM10.4986 15.6558C6.43429 15.6558 3.13064 12.4446 3.13064 8.5V8.492L4.87995 8.47333L2.8011 4.41936L0 8.49733H1.74931C1.74657 13.2661 5.9235 17 10.4986 17C12.5583 17 14.4559 16.3039 15.9525 15.1437C16.2738 14.893 16.2985 14.4263 16.0075 14.1436C15.7576 13.9008 15.3621 13.8795 15.0875 14.0929C13.827 15.0717 12.2315 15.6558 10.4986 15.6558Z" fill="white"/>
</svg>
