<?xml version="1.0" encoding="utf-8"?>
<svg version="1.1" xmlns:xlink="http://www.w3.org/1999/xlink" width="34px" height="34px" xmlns="http://www.w3.org/2000/svg">
  <g>
    <path d="M 14.1666666666667 26.3411458333333  C 14.5503472222222 26.3411458333333  14.8823784722222 26.2009548611111  15.1627604166667 25.9205729166667  L 28.75390625 12.3294270833333  C 29.0342881944444 12.0490451388889  29.1744791666667 11.7170138888889  29.1744791666667 11.3333333333333  C 29.1744791666667 10.9496527777778  29.0342881944444 10.6176215277778  28.75390625 10.3372395833333  L 26.49609375 8.07942708333333  C 26.2157118055556 7.79904513888889  25.8836805555556 7.65885416666667  25.5 7.65885416666667  C 25.1163194444444 7.65885416666667  24.7842881944444 7.79904513888889  24.50390625 8.07942708333333  L 14.1666666666667 18.4166666666667  L 9.49609375 13.74609375  C 9.21571180555556 13.4657118055556  8.88368055555556 13.3255208333333  8.5 13.3255208333333  C 8.11631944444444 13.3255208333333  7.78428819444444 13.4657118055556  7.50390625 13.74609375  L 5.24609375 16.00390625  C 4.96571180555556 16.2842881944444  4.82552083333333 16.6163194444444  4.82552083333333 17  C 4.82552083333333 17.3836805555556  4.96571180555556 17.7157118055556  5.24609375 17.99609375  L 13.1705729166667 25.9205729166667  C 13.4509548611111 26.2009548611111  13.7829861111111 26.3411458333333  14.1666666666667 26.3411458333333  Z M 32.1295572916667 1.87044270833333  C 33.3765190972222 3.11740451388889  34 4.61892361111111  34 6.375  L 34 27.625  C 34 29.3810763888889  33.3765190972222 30.8825954861111  32.1295572916667 32.1295572916667  C 30.8825954861111 33.3765190972222  29.3810763888889 34  27.625 34  L 6.375 34  C 4.61892361111111 34  3.11740451388889 33.3765190972222  1.87044270833333 32.1295572916667  C 0.623480902777778 30.8825954861111  0 29.3810763888889  0 27.625  L 0 6.375  C 0 4.61892361111111  0.623480902777778 3.11740451388889  1.87044270833333 1.87044270833333  C 3.11740451388889 0.623480902777776  4.61892361111111 0  6.375 0  L 27.625 0  C 29.3810763888889 0  30.8825954861111 0.623480902777776  32.1295572916667 1.87044270833333  Z " fill-rule="nonzero" fill="#95f204" stroke="none" />
  </g>
</svg>